<svg width="23" height="23" viewBox="0 0 23 23" fill="none" xmlns="http://www.w3.org/2000/svg">
<g id="Group 23">
<path id="Ellipse 1" d="M13.5483 11.7068C13.5483 12.8516 12.633 13.7796 11.5039 13.7796C10.3748 13.7796 9.45947 12.8516 9.45947 11.7068C9.45947 10.562 10.3748 9.63391 11.5039 9.63391C12.633 9.63391 13.5483 10.562 13.5483 11.7068Z" fill="black"/>
<path id="Ellipse 2" d="M16.9835 11.9553C16.9835 14.9776 14.5671 17.4276 11.5862 17.4276C8.60541 17.4276 6.18896 14.9776 6.18896 11.9553C6.18896 8.93296 8.60541 6.48291 11.5862 6.48291C14.5671 6.48291 16.9835 8.93296 16.9835 11.9553ZM8.05947 11.9553C8.05947 13.9301 9.63846 15.5311 11.5862 15.5311C13.534 15.5311 15.113 13.9301 15.113 11.9553C15.113 9.98038 13.534 8.37943 11.5862 8.37943C9.63846 8.37943 8.05947 9.98038 8.05947 11.9553Z" fill="black"/>
<path id="Vector 1" d="M17.9628 8.14132H5.20557L6.37332 6.3172H16.4619L17.9628 8.14132Z" fill="black"/>
<path id="Vector 2" d="M17.9645 15.438H5.1792L6.77013 17.2621H16.4829L17.9645 15.438Z" fill="black"/>
<path id="Ellipse 3" d="M20.4177 11.7062C20.4177 16.6975 16.4269 20.7438 11.504 20.7438C6.58113 20.7438 2.59033 16.6975 2.59033 11.7062C2.59033 6.71482 6.58113 2.66852 11.504 2.66852C16.4269 2.66852 20.4177 6.71482 20.4177 11.7062ZM4.37206 11.7062C4.37206 15.6998 7.56515 18.9373 11.504 18.9373C15.4429 18.9373 18.636 15.6998 18.636 11.7062C18.636 7.71252 15.4429 4.47502 11.504 4.47502C7.56515 4.47502 4.37206 7.71252 4.37206 11.7062Z" fill="black"/>
<path id="Vector 3" d="M10.7686 6.3169L10.7632 4.38734L12.5677 3.9845V6.3169H10.7686Z" fill="black"/>
<path id="Vector 4" d="M9.37728 2.91768C10.882 2.45335 11.4217 1.28703 11.5035 0.761902C11.6343 1.49155 12.8119 2.83476 13.7932 3.00059C11.6943 3.16642 7.87259 3.382 9.37728 2.91768Z" fill="black"/>
<path id="Vector 5" d="M2.91722 14.1115C2.45927 12.5859 1.30894 12.0386 0.791016 11.9557C1.51065 11.823 2.83544 10.6291 2.999 9.63411C3.16255 11.7622 3.37517 15.6371 2.91722 14.1115Z" fill="black"/>
<path id="Vector 6" d="M13.8756 20.3613C12.371 20.8256 11.8312 21.9919 11.7494 22.517C11.6186 21.7874 10.441 20.4442 9.45969 20.2783C11.5586 20.1125 15.3803 19.8969 13.8756 20.3613Z" fill="black"/>
<path id="Vector 7" d="M20.2034 9.48244C20.6613 11.0081 21.8117 11.5553 22.3296 11.6382C21.61 11.7709 20.2852 12.9648 20.1216 13.9598C19.9581 11.8317 19.7454 7.95682 20.2034 9.48244Z" fill="black"/>
</g>
</svg>
