<svg width="292" height="292" viewBox="0 0 292 292" fill="none" xmlns="http://www.w3.org/2000/svg">
<path d="M241.32 144.454C241.32 147.498 238.852 149.966 235.808 149.966C232.763 149.966 230.295 147.498 230.295 144.454C230.295 141.409 232.763 138.941 235.808 138.941C238.852 138.941 241.32 141.409 241.32 144.454Z" fill="#EBEBEB"/>
<path d="M223.589 148.606C225.882 146.313 225.882 142.595 223.589 140.302C221.295 138.008 217.577 138.008 215.284 140.302C212.991 142.595 212.991 146.313 215.284 148.606C217.577 150.899 221.295 150.899 223.589 148.606Z" fill="#EBEBEB"/>
<path d="M206.858 140.297C210.3 140.297 213.091 137.507 213.091 134.064C213.091 130.622 210.3 127.831 206.858 127.831C203.415 127.831 200.625 130.622 200.625 134.064C200.625 137.507 203.415 140.297 206.858 140.297Z" fill="#EBEBEB"/>
<path d="M210.723 119.24C211.358 115.7 209.004 112.316 205.465 111.681C201.926 111.046 198.542 113.4 197.906 116.939C197.271 120.478 199.625 123.862 203.164 124.497C206.703 125.133 210.087 122.779 210.723 119.24Z" fill="#EBEBEB"/>
<path d="M212.276 110.836C215.992 110.836 219.005 107.824 219.005 104.108C219.005 100.392 215.992 97.3797 212.276 97.3797C208.56 97.3797 205.548 100.392 205.548 104.108C205.548 107.824 208.56 110.836 212.276 110.836Z" fill="#EBEBEB"/>
<path d="M230.434 105.361C234.171 103.799 235.934 99.5039 234.372 95.7672C232.811 92.0305 228.516 90.2672 224.779 91.8288C221.042 93.3904 219.279 97.6855 220.841 101.422C222.402 105.159 226.697 106.922 230.434 105.361Z" fill="#EBEBEB"/>
<path d="M253.169 135.15C253.842 132.287 252.067 129.421 249.204 128.748C246.342 128.075 243.475 129.849 242.802 132.712C242.129 135.575 243.904 138.441 246.767 139.114C249.629 139.787 252.496 138.012 253.169 135.15Z" fill="#EBEBEB"/>
<path d="M252.591 122.541C255.14 121.565 256.415 118.708 255.439 116.159C254.463 113.61 251.606 112.335 249.057 113.311C246.508 114.287 245.233 117.144 246.209 119.693C247.185 122.242 250.043 123.517 252.591 122.541Z" fill="#EBEBEB"/>
<path d="M247.052 104.657C247.45 102.196 245.778 99.8779 243.317 99.4795C240.856 99.0811 238.538 100.753 238.14 103.214C237.741 105.675 239.414 107.993 241.875 108.392C244.336 108.79 246.654 107.118 247.052 104.657Z" fill="#EBEBEB"/>
<path fill-rule="evenodd" clip-rule="evenodd" d="M83.0816 77.3993C84.4405 78.8517 85.5811 80.4635 86.4892 82.1828L91.9344 82.1618L93.958 90.9416L89.053 93.3074C88.9899 95.2504 88.671 97.1992 88.0841 99.1013L91.9484 102.936L87.1707 110.575L82.0321 108.78C80.5797 110.141 78.9667 111.28 77.2474 112.187L77.2678 117.633L68.4892 119.657L66.1228 114.752C64.1798 114.688 62.2316 114.369 60.3289 113.781L56.495 117.646L48.8545 112.869L50.6497 107.729C49.289 106.277 48.1502 104.665 47.2426 102.945L41.7963 102.966L39.7727 94.1858L44.6789 91.8206C44.7425 89.8776 45.062 87.9294 45.6483 86.0273L41.7852 82.1927L46.5623 74.5534L51.7009 76.3486C53.1533 74.9879 54.7663 73.848 56.4856 72.941L56.4652 67.4946L65.2439 65.4711L67.6096 70.3767C69.5526 70.4397 71.5008 70.7592 73.4035 71.3461L77.2375 67.4824L84.8762 72.2589L83.0816 77.3993ZM72.3371 84.5866C67.8117 81.7565 61.8479 83.1306 59.0173 87.6572C56.1872 92.1832 57.5625 98.147 62.0873 100.977C66.6139 103.807 72.5766 102.432 75.4072 97.9064C78.2379 93.3798 76.8637 87.4172 72.3371 84.5866Z" fill="#E0E0E0"/>
<path fill-rule="evenodd" clip-rule="evenodd" d="M88.3862 40.4724C89.1384 41.2765 89.7697 42.1689 90.2725 43.1208L93.2871 43.1091L94.4072 47.9698L91.6916 49.2797C91.6566 50.3554 91.4802 51.4346 91.1549 52.4876L93.2941 54.6104L90.6486 58.8398L87.8033 57.8464C86.9992 58.5997 86.1062 59.2305 85.1543 59.7327L85.166 62.7479L80.3059 63.8686L78.996 61.153C77.9203 61.1179 76.8417 60.941 75.7887 60.6157L73.6659 62.7555L69.436 60.1105L70.4299 57.2653C69.6766 56.4611 69.0458 55.5688 68.5436 54.6163L65.5284 54.6274L64.4077 49.7662L67.1239 48.4568C67.1589 47.3811 67.3365 46.3024 67.6606 45.2495L65.5214 43.1267L68.1663 38.8967L71.0116 39.8907C71.8158 39.1374 72.7087 38.506 73.6606 38.0038L73.6489 34.9886L78.509 33.8679L79.8189 36.5841C80.8946 36.6191 81.9733 36.7961 83.0268 37.1208L85.1496 34.9816L89.379 37.626L88.3862 40.4724ZM82.4375 44.4517C79.9322 42.8849 76.6303 43.6458 75.0634 46.1518C73.4965 48.6577 74.258 51.9591 76.7634 53.5259C79.2693 55.0928 82.5707 54.3319 84.1376 51.8259C85.7044 49.32 84.9435 46.0186 82.4375 44.4517Z" fill="#E0E0E0"/>
<path d="M46.0944 49.4572C46.0991 49.449 46.1826 49.4958 46.3373 49.5933C46.4939 49.6873 46.7111 49.8514 46.9587 50.0967C47.4499 50.575 48.0724 51.4621 48.2056 52.7276C48.2669 53.3513 48.2102 54.0609 47.9369 54.7547C47.663 55.4415 47.211 56.1317 46.5435 56.6445C46.2182 56.909 45.8404 57.1245 45.4321 57.2851C45.0257 57.4516 44.5836 57.5567 44.1281 57.5871C43.2164 57.6682 42.2517 57.4335 41.4253 56.9266C40.6071 56.4056 39.9735 55.6406 39.6476 54.785C39.4753 54.3616 39.3766 53.9178 39.348 53.4798C39.3136 53.0424 39.3422 52.6079 39.4374 52.1997C39.6062 51.3745 40.0284 50.6661 40.5265 50.1189C41.0311 49.5699 41.6437 49.2078 42.2318 48.99C43.4279 48.5561 44.4983 48.7266 45.1431 48.9591C45.4719 49.0741 45.7148 49.1979 45.8672 49.2972C46.0208 49.3947 46.0997 49.4496 46.0944 49.4572C46.0786 49.4858 45.7598 49.2633 45.1086 49.0618C44.4691 48.8656 43.4337 48.7342 42.299 49.1728C41.7413 49.393 41.1637 49.7463 40.693 50.2742C40.2281 50.8004 39.8357 51.4743 39.6838 52.2534C39.5968 52.6388 39.5735 53.0482 39.6085 53.4599C39.6377 53.8722 39.7329 54.2892 39.897 54.6863C40.2071 55.4893 40.8022 56.2042 41.5702 56.6941C42.3469 57.1695 43.2497 57.392 44.107 57.319C44.5357 57.2927 44.9521 57.1958 45.3358 57.0416C45.7212 56.8933 46.0786 56.693 46.387 56.4459C47.0212 55.9688 47.4551 55.3206 47.7243 54.6723C47.9924 54.0182 48.0578 53.3443 48.0117 52.7463C47.9095 51.5339 47.3383 50.6602 46.881 50.1714C46.415 49.6733 46.0751 49.4835 46.0944 49.4572Z" fill="#E0E0E0"/>
<path d="M50.9143 46.2329C50.9108 46.2335 50.9242 46.1845 50.9546 46.0864C50.9902 45.9772 51.0369 45.8317 51.0965 45.6466C51.232 45.2425 51.4259 44.6632 51.677 43.9127L51.6951 43.9641C50.8132 43.4204 49.6552 42.7062 48.2547 41.843L48.3412 41.8331C47.822 42.3604 47.2456 42.9468 46.6289 43.574L46.595 43.6085L46.5477 43.5944C45.7628 43.3556 44.8932 43.1997 43.9699 43.1728L43.9156 43.171L43.8917 43.1214C43.5588 42.4364 43.1985 41.6953 42.8235 40.9238L42.9333 40.9764C41.6941 41.2654 40.3783 41.572 38.9978 41.8944L39.0818 41.7887C39.0865 42.545 39.0912 43.3778 39.0964 44.2316L39.097 44.3005L39.0363 44.3326C38.3203 44.7116 37.581 45.222 36.9181 45.8475L36.8662 45.8966L36.7978 45.8732C36.083 45.625 35.2946 45.3505 34.4916 45.072L34.6359 45.0212C33.9643 46.0986 33.2401 47.2602 32.4978 48.451L32.4797 48.2927C33.0199 48.8277 33.6133 49.4158 34.2148 50.0108L34.2709 50.0663L34.2475 50.1417C34.0075 50.9207 33.8486 51.8049 33.8206 52.7066L33.8183 52.7866L33.7458 52.8216C33.0567 53.1545 32.3051 53.5178 31.5459 53.8845L31.6183 53.7333C31.9062 54.9801 32.2152 56.3163 32.5282 57.6712L32.3945 57.5655C33.1659 57.5625 33.9987 57.559 34.8379 57.5555L34.9209 57.555L34.9594 57.6285C35.3443 58.3591 35.8547 59.0926 36.4655 59.7432L36.4661 59.7438L36.4667 59.7444C36.4801 59.8069 36.4375 59.6054 36.4965 59.884L36.4959 59.8863L36.4941 59.891L36.4912 59.9003L36.4848 59.9184L36.472 59.9546L36.4463 60.027L36.3954 60.1719L36.2944 60.4615L36.0924 61.0397C35.958 61.4245 35.8243 61.8076 35.6906 62.189L35.6339 62.0278C36.792 62.7526 37.9343 63.4674 39.0608 64.1717L38.8921 64.1915C39.4714 63.6081 40.0449 63.0305 40.6125 62.4588L40.6703 62.401L40.748 62.4249C41.5884 62.6848 42.4533 62.8273 43.3112 62.8559L43.3918 62.8588L43.4268 62.9313C43.7854 63.6759 44.1381 64.4088 44.4862 65.1324L44.339 65.0617C45.6834 64.7533 46.9974 64.452 48.2781 64.1582L48.18 64.2821C48.1782 63.4534 48.1759 62.6387 48.1741 61.8392V61.7644L48.2401 61.73C49.0274 61.3159 49.7404 60.8043 50.3624 60.2238L50.415 60.1748L50.4827 60.1987C51.2729 60.4761 52.0385 60.7454 52.7866 61.0082L52.6523 61.0555C53.4091 59.8518 54.1234 58.7154 54.8031 57.6338L54.8183 57.764C54.2104 57.1573 53.6398 56.5884 53.0897 56.0395L53.047 55.9968L53.0646 55.9402C53.3414 55.0508 53.4728 54.1894 53.5031 53.3677L53.5055 53.3128L53.5545 53.2894C54.3558 52.9069 55.077 52.5623 55.7586 52.2365L55.7142 52.3264C55.3702 50.7992 55.077 49.4981 54.8259 48.3838L54.8861 48.4317C53.9108 48.4282 53.1107 48.4259 52.4432 48.4235H52.4163L52.4041 48.4002C51.9941 47.6129 51.597 47.0827 51.3272 46.7393C51.194 46.5775 51.0918 46.4531 51.0159 46.3603C50.9429 46.2744 50.9108 46.2335 50.9143 46.2329C50.9178 46.2324 50.9587 46.2709 51.0328 46.3451C51.1076 46.4233 51.2203 46.5425 51.3622 46.7101C51.6443 47.0453 52.056 47.5709 52.4817 48.3581L52.4426 48.3348C53.1101 48.3278 53.9102 48.319 54.8855 48.3079L54.9345 48.3073L54.9462 48.3558C55.2084 49.4677 55.5139 50.7665 55.873 52.2896L55.8876 52.3527L55.8286 52.3813C55.1494 52.7118 54.4305 53.0622 53.6322 53.4506L53.683 53.3723C53.6579 54.2092 53.5294 55.0881 53.252 55.9974L53.2275 55.8982C53.7805 56.4442 54.354 57.0107 54.9655 57.6139L55.0251 57.6729L54.9807 57.7448C54.3056 58.8298 53.596 59.9692 52.845 61.1763L52.7971 61.2534L52.7107 61.2236C51.962 60.9638 51.1946 60.6975 50.4039 60.423L50.5242 60.3973C49.8888 60.9947 49.1594 61.5215 48.354 61.9478L48.4194 61.8386C48.4235 62.6387 48.4276 63.4528 48.4317 64.2815L48.4323 64.3825L48.3336 64.4053C47.0535 64.7019 45.7406 65.0062 44.3968 65.3175L44.2952 65.3408L44.2497 65.2468C43.8998 64.5238 43.5459 63.7915 43.1862 63.0475L43.3018 63.1228C42.4206 63.0948 41.5311 62.9494 40.6674 62.6831L40.8029 62.6492C40.2352 63.2215 39.6623 63.7997 39.0842 64.3837L39.0077 64.4608L38.9154 64.4029C37.7889 63.6992 36.646 62.985 35.4873 62.2608L35.3945 62.2024L35.4307 62.0991C35.5638 61.7177 35.6976 61.3346 35.8319 60.9497L36.034 60.3716L36.135 60.0819L36.1858 59.9365L36.2109 59.8641L36.2238 59.8279L36.2302 59.8098L36.2331 59.801L36.2349 59.7963L36.2354 59.794C36.2944 60.072 36.2518 59.8711 36.2646 59.933L36.2641 59.9324L36.2629 59.9313C35.6351 59.2626 35.1101 58.508 34.7153 57.757L34.8368 57.83C33.9981 57.8329 33.1653 57.8359 32.3933 57.8388L32.2841 57.8394L32.2596 57.7331C31.9477 56.3782 31.6405 55.0414 31.3538 53.794L31.3298 53.6889L31.4268 53.6422C32.1866 53.2766 32.9388 52.9145 33.6285 52.5828L33.5531 52.6978C33.5829 51.7716 33.7482 50.8641 33.9958 50.0652L34.0285 50.196C33.4287 49.5991 32.8366 49.0105 32.2975 48.4743L32.2251 48.4019L32.2794 48.3155C33.0252 47.1271 33.7523 45.9666 34.4268 44.8915L34.4788 44.8086L34.571 44.8407C35.3734 45.1222 36.1607 45.399 36.8749 45.6495L36.7552 45.6752C37.4367 45.0375 38.1953 44.5172 38.9294 44.1329L38.8687 44.2333C38.8675 43.3795 38.8658 42.5467 38.8646 41.7905V41.7034L38.9487 41.6842C40.331 41.3694 41.6479 41.0692 42.8889 40.7866L42.9654 40.769L42.9993 40.8391C43.3696 41.6123 43.7252 42.3564 44.054 43.0431L43.9758 42.9923C44.916 43.0262 45.7996 43.1915 46.5956 43.4403L46.5156 43.4613C47.1375 42.8399 47.7198 42.2588 48.2431 41.7356L48.2828 41.6959L48.3295 41.7256C49.7188 42.6069 50.8676 43.3351 51.7424 43.8905L51.7722 43.9098L51.7605 43.9425C51.493 44.6789 51.2863 45.2472 51.142 45.6443C51.0725 45.8294 51.0182 45.9742 50.9773 46.0834C50.9394 46.1816 50.9184 46.2324 50.9143 46.2329Z" fill="#E0E0E0"/>
<path d="M190.712 24.3382L173.542 24.2594C171.24 24.2488 169.364 26.1918 169.355 28.5985L169.341 31.7129C169.331 34.1202 167.456 36.0632 165.154 36.0527L131.684 35.8979C129.382 35.8874 127.523 33.9275 127.533 31.5202L127.547 28.4058C127.557 25.9985 125.698 24.038 123.396 24.0281L117.357 24.0001L102.329 23.9306C94.8656 23.8967 88.7879 29.9201 88.7564 37.3842L87.8407 254.094C87.8092 261.555 93.829 267.628 101.288 267.662L189.672 268.07C197.135 268.104 203.213 262.081 203.245 254.617L204.161 37.9063C204.192 30.4462 198.172 24.3732 190.712 24.3382Z" fill="white"/>
<path d="M190.712 24.3382C190.712 24.3382 190.868 24.3417 191.175 24.3557C191.48 24.3867 191.945 24.3534 192.544 24.4696C193.74 24.6168 195.56 25.0139 197.602 26.2432C198.633 26.8307 199.681 27.6752 200.671 28.7532C201.658 29.8331 202.572 31.1815 203.225 32.7951C203.886 34.4034 204.239 36.2793 204.211 38.28C204.205 40.275 204.199 42.399 204.192 44.6491C204.127 62.6515 204.033 88.6968 203.918 120.879C203.791 153.064 203.64 191.386 203.472 233.938C203.451 239.257 203.429 244.642 203.407 250.089C203.401 251.451 203.396 252.817 203.39 254.187C203.369 255.557 203.275 256.965 202.857 258.296C202.463 259.628 201.906 260.926 201.12 262.087C200.338 263.247 199.388 264.296 198.301 265.19C196.103 266.94 193.353 268.05 190.507 268.179C189.794 268.227 189.092 268.217 188.387 268.212L186.269 268.203C184.855 268.196 183.439 268.19 182.018 268.183C176.336 268.158 170.599 268.132 164.811 268.106C153.235 268.053 141.454 267.999 129.498 267.945C123.52 267.918 117.499 267.89 111.437 267.862C108.406 267.848 105.365 267.834 102.315 267.82C99.255 267.964 96.0944 267.145 93.547 265.361C90.989 263.591 89.1068 260.921 88.2355 257.963C87.7665 256.488 87.6854 254.919 87.6912 253.401C87.6976 251.88 87.704 250.362 87.7105 248.846C87.7362 242.782 87.7619 236.759 87.7876 230.779C87.8389 218.82 87.8892 207.036 87.9394 195.457C88.0404 172.299 88.138 149.961 88.2308 128.681C88.3254 107.402 88.4159 87.1819 88.5 68.2579C88.5433 58.796 88.5847 49.6581 88.6244 40.8748C88.6297 39.7768 88.6344 38.6842 88.6396 37.5973C88.6495 37.0531 88.6904 36.5047 88.722 35.9616C88.8189 35.4254 88.8627 34.88 89.004 34.3556C89.5057 32.2467 90.4903 30.2746 91.8627 28.654C93.245 27.0421 94.9754 25.7667 96.8781 24.9362C98.7796 24.0871 100.864 23.7933 102.878 23.826C106.901 23.8465 110.828 23.8663 114.655 23.8856C116.569 23.8955 118.457 23.9049 120.321 23.9148C121.253 23.9195 122.178 23.9241 123.097 23.9288C124.023 23.8868 124.981 24.1437 125.739 24.6781C126.497 25.2125 127.078 25.9798 127.375 26.843C127.716 27.7073 127.63 28.6388 127.637 29.5043C127.634 29.944 127.633 30.3826 127.63 30.8194C127.63 31.2574 127.612 31.6925 127.668 32.1107C127.772 32.9516 128.124 33.7587 128.673 34.3883C129.21 35.0277 129.949 35.4856 130.744 35.6859C131.145 35.7875 131.547 35.8179 131.967 35.8115C132.384 35.8138 132.799 35.8156 133.212 35.8179C134.865 35.8267 136.491 35.8348 138.089 35.8436C144.481 35.8775 150.429 35.9096 155.904 35.9388C158.642 35.954 161.261 35.968 163.759 35.9814C164.38 35.9732 165.008 36.0147 165.601 35.9651C166.197 35.8997 166.768 35.6958 167.264 35.3875C168.262 34.7714 168.941 33.7459 169.174 32.6625C169.301 32.1206 169.281 31.5675 169.287 31.0192C169.289 30.4725 169.292 29.9335 169.295 29.4032C169.304 28.8759 169.274 28.3456 169.372 27.8299C169.462 27.3172 169.638 26.8284 169.885 26.3886C170.374 25.5039 171.165 24.8369 172.043 24.4959C172.928 24.1145 173.87 24.2348 174.722 24.2202C178.186 24.2418 181.117 24.2605 183.486 24.2751C185.853 24.2927 187.659 24.3061 188.876 24.3148C190.09 24.3248 190.712 24.3382 190.712 24.3382C190.712 24.3382 190.09 24.3458 188.876 24.3452C187.66 24.3429 185.854 24.34 183.486 24.3353C181.117 24.3283 178.186 24.3195 174.722 24.3096C173.862 24.3259 172.938 24.2115 172.079 24.5852C171.223 24.9205 170.452 25.5728 169.976 26.4383C169.736 26.8681 169.565 27.3458 169.478 27.8469C169.383 28.3462 169.414 28.8706 169.406 29.4021C169.404 29.9329 169.403 30.4714 169.401 31.018C169.396 31.5605 169.418 32.1276 169.289 32.6859C169.052 33.7984 168.357 34.8549 167.329 35.4914C166.819 35.8103 166.229 36.0217 165.614 36.0906C164.992 36.1426 164.385 36.1011 163.758 36.1111C161.261 36.1017 158.641 36.0918 155.903 36.0813C150.427 36.0597 144.479 36.0363 138.087 36.0118C136.489 36.0054 134.863 35.9989 133.21 35.9919C132.797 35.9902 132.382 35.9884 131.966 35.9867C131.553 35.9943 131.114 35.9639 130.7 35.8576C129.868 35.6491 129.096 35.1708 128.535 34.5051C127.963 33.8486 127.594 33.0083 127.484 32.1323C127.426 31.6902 127.445 31.251 127.444 30.8171C127.446 30.3803 127.448 29.9423 127.449 29.5019C127.441 28.6218 127.522 27.7283 127.194 26.9049C126.909 26.0779 126.351 25.3444 125.628 24.8352C124.897 24.3259 124.006 24.083 123.095 24.1233C122.176 24.1192 121.251 24.1157 120.319 24.1116C118.456 24.104 116.567 24.0958 114.653 24.0883C110.826 24.0725 106.899 24.0561 102.876 24.0392C100.876 24.0094 98.838 24.2991 96.9645 25.1365C95.094 25.9553 93.3922 27.2115 92.0338 28.7976C90.6854 30.3931 89.7194 32.3326 89.2277 34.4058C89.0887 34.9209 89.0472 35.4576 88.9515 35.9843C88.9217 36.5199 88.8808 37.0536 88.8715 37.5962C88.8674 38.683 88.8633 39.7757 88.8586 40.8736C88.8242 49.6575 88.7885 58.7954 88.7517 68.2568C88.6758 87.1807 88.5952 107.401 88.5106 128.68C88.4235 149.96 88.3318 172.298 88.2372 195.455C88.1888 207.034 88.1397 218.818 88.0901 230.778C88.065 236.758 88.0398 242.782 88.0141 248.845C88.0077 250.361 88.0013 251.88 87.9949 253.401C87.9896 254.915 88.0679 256.428 88.5269 257.877C89.379 260.768 91.2191 263.379 93.7204 265.11C96.2217 266.854 99.2772 267.654 102.315 267.514C105.365 267.528 108.406 267.542 111.437 267.556C117.499 267.584 123.521 267.612 129.499 267.64C141.455 267.696 153.235 267.751 164.812 267.805C170.6 267.833 176.337 267.86 182.019 267.887C183.439 267.894 184.857 267.9 186.27 267.907L188.387 267.917C189.093 267.922 189.798 267.932 190.49 267.885C193.276 267.761 195.965 266.674 198.118 264.963C199.182 264.087 200.112 263.061 200.879 261.926C201.648 260.79 202.193 259.519 202.579 258.216C202.99 256.909 203.081 255.544 203.102 254.184C203.108 252.815 203.115 251.449 203.121 250.087C203.144 244.639 203.168 239.254 203.192 233.935C203.384 191.384 203.557 153.062 203.702 120.878C203.859 88.695 203.985 62.6498 204.073 44.648C204.085 42.3978 204.096 40.2738 204.107 38.2789C204.138 36.2874 203.793 34.4286 203.14 32.8284C202.497 31.2242 201.592 29.8809 200.615 28.8041C199.633 27.7289 198.595 26.8844 197.57 26.2958C195.542 25.0635 193.732 24.6571 192.539 24.5006C191.943 24.3797 191.479 24.4083 191.174 24.3721C190.868 24.3522 190.712 24.3382 190.712 24.3382Z" fill="#263238"/>
<path d="M174.844 92.5722L173.516 90.9965L177.467 88.8801L159.124 82.6716L165.333 100.45L167.591 97.4865C167.591 97.4865 179.459 118.372 167.591 131.068C155.804 143.676 141.911 140.944 141.911 140.944L144.591 149.693C144.591 149.693 166.462 151.245 178.173 131.491C189.884 111.738 174.844 92.5722 174.844 92.5722Z" fill="#E8505B"/>
<path d="M119.841 136.391L121.168 137.967L117.218 140.084L135.56 146.292L129.352 128.514L127.094 131.477C127.094 131.477 115.226 110.592 127.094 97.8959C138.881 85.2874 152.774 88.0187 152.774 88.0187L150.093 79.2704C150.093 79.2704 128.222 77.7182 116.512 97.472C104.801 117.226 119.841 136.391 119.841 136.391Z" fill="#E8505B"/>
<path d="M174.844 92.5722L173.516 90.9965L177.467 88.8801L159.124 82.6716L165.333 100.45L167.591 97.4865C167.591 97.4865 179.459 118.372 167.591 131.068C155.804 143.676 141.911 140.944 141.911 140.944L144.591 149.693C144.591 149.693 166.462 151.245 178.173 131.491C189.884 111.738 174.844 92.5722 174.844 92.5722Z" fill="#E8505B"/>
<path d="M119.841 136.391L121.168 137.967L117.218 140.084L135.56 146.292L129.352 128.514L127.094 131.477C127.094 131.477 115.226 110.592 127.094 97.8959C138.881 85.2874 152.774 88.0187 152.774 88.0187L150.093 79.2704C150.093 79.2704 128.222 77.7182 116.512 97.472C104.801 117.226 119.841 136.391 119.841 136.391Z" fill="#E8505B"/>
<g opacity="0.8">
<path d="M174.844 92.5722L173.516 90.9965L177.467 88.8801L159.124 82.6716L165.333 100.45L167.591 97.4865C167.591 97.4865 179.459 118.372 167.591 131.068C155.804 143.676 141.911 140.944 141.911 140.944L144.591 149.693C144.591 149.693 166.462 151.245 178.173 131.491C189.884 111.738 174.844 92.5722 174.844 92.5722Z" fill="white"/>
</g>
<g opacity="0.8">
<path d="M119.841 136.391L121.168 137.967L117.218 140.084L135.56 146.292L129.352 128.514L127.094 131.477C127.094 131.477 115.226 110.592 127.094 97.8959C138.881 85.2874 152.774 88.0187 152.774 88.0187L150.093 79.2704C150.093 79.2704 128.222 77.7182 116.512 97.472C104.801 117.226 119.841 136.391 119.841 136.391Z" fill="white"/>
</g>
<path fill-rule="evenodd" clip-rule="evenodd" d="M157.801 104.111C158.681 105.052 159.419 106.095 160.007 107.208L163.532 107.194L164.842 112.877L161.667 114.409C161.626 115.666 161.419 116.928 161.04 118.159L163.541 120.641L160.448 125.585L157.122 124.424C156.181 125.304 155.138 126.042 154.025 126.629L154.038 130.154L148.356 131.464L146.824 128.29C145.566 128.249 144.305 128.041 143.074 127.661L140.593 130.163L135.647 127.07L136.81 123.744C135.929 122.804 135.192 121.76 134.604 120.647L131.078 120.66L129.768 114.977L132.944 113.446C132.985 112.188 133.192 110.927 133.571 109.696L131.071 107.214L134.163 102.27L137.489 103.432C138.429 102.551 139.473 101.813 140.586 101.226L140.572 97.7009L146.255 96.391L147.786 99.5662C149.044 99.6071 150.305 99.8138 151.536 100.194L154.018 97.6927L158.962 100.784L157.801 104.111ZM150.847 108.764C147.917 106.932 144.057 107.822 142.225 110.752C140.393 113.681 141.283 117.541 144.212 119.373C147.142 121.205 151.002 120.315 152.834 117.386C154.666 114.456 153.777 110.596 150.847 108.764Z" fill="#E8505B"/>
<g opacity="0.6">
<path fill-rule="evenodd" clip-rule="evenodd" d="M150.847 108.764C147.917 106.932 144.057 107.822 142.225 110.752C140.393 113.681 141.283 117.541 144.212 119.373C147.142 121.205 151.002 120.315 152.834 117.386C154.666 114.456 153.777 110.596 150.847 108.764Z" fill="white"/>
</g>
<path d="M128.299 172.159V168.415H128.99V172.131C128.99 173.681 129.718 174.39 130.988 174.39C132.267 174.39 132.995 173.681 132.995 172.131V168.415H133.667V172.159C133.667 174.035 132.659 175.006 130.987 175.006C129.317 175.007 128.299 174.036 128.299 172.159Z" fill="#263238"/>
<path d="M140.863 170.656C140.863 172.047 139.855 172.887 138.193 172.887H136.437V174.951H135.746V168.415H138.193C139.855 168.415 140.863 169.255 140.863 170.656ZM140.172 170.656C140.172 169.61 139.481 169.013 138.174 169.013H136.437V172.281H138.174C139.481 172.281 140.172 171.683 140.172 170.656Z" fill="#263238"/>
<path d="M142.354 168.415H145.015C147.106 168.415 148.516 169.759 148.516 171.683C148.516 173.606 147.107 174.95 145.015 174.95H142.354V168.415ZM144.977 174.353C146.714 174.353 147.834 173.251 147.834 171.683C147.834 170.115 146.714 169.013 144.977 169.013H143.045V174.353H144.977Z" fill="#263238"/>
<path d="M154.067 173.204H150.426L149.641 174.95H148.923L151.911 168.414H152.592L155.58 174.95H154.852L154.067 173.204ZM153.815 172.644L152.247 169.134L150.678 172.644H153.815Z" fill="#263238"/>
<path d="M157.603 169.012H155.306V168.415H160.59V169.012H158.293V174.951H157.603V169.012H157.603Z" fill="#263238"/>
<path d="M166.311 174.353V174.951H161.689V168.415H166.171V169.012H162.381V171.337H165.76V171.926H162.381V174.353H166.311Z" fill="#263238"/>
<path d="M195.835 45.364C195.836 45.4253 193.469 45.4954 190.549 45.5193C187.629 45.5432 185.261 45.5135 185.261 45.4516C185.261 45.3902 187.627 45.3202 190.548 45.2962C193.466 45.2723 195.835 45.3026 195.835 45.364Z" fill="#263238"/>
<path d="M195.857 48.0696C195.858 48.131 193.491 48.2005 190.572 48.225C187.651 48.2495 185.283 48.2186 185.283 48.1572C185.283 48.0959 187.649 48.0264 190.57 48.0019C193.489 47.978 195.857 48.0083 195.857 48.0696Z" fill="#263238"/>
<path d="M195.88 50.7753C195.88 50.8366 193.513 50.9061 190.594 50.9307C187.673 50.9546 185.306 50.9242 185.306 50.8629C185.305 50.8016 187.671 50.7321 190.592 50.7076C193.511 50.6831 195.879 50.714 195.88 50.7753Z" fill="#263238"/>
<path d="M99.6584 53.8635C99.6625 53.8594 99.7378 53.8547 99.878 53.8489C100.051 53.843 100.252 53.8366 100.489 53.8284C101.066 53.815 101.821 53.7969 102.747 53.7747L102.685 53.8384C102.677 53.3379 102.668 52.7912 102.658 52.2014C102.661 51.8971 102.632 51.6104 102.662 51.2588C102.723 50.9084 103.035 50.5989 103.419 50.5627C103.783 50.5557 104.104 50.5393 104.498 50.5574C104.905 50.6071 105.251 50.9984 105.239 51.4294C105.247 52.1927 105.256 52.9904 105.265 53.8173L105.161 53.7146C106.075 53.7052 107.028 53.6959 108.009 53.6854L107.901 53.7957C107.891 52.6488 107.881 51.4621 107.869 50.2468C107.867 49.9437 107.864 49.6423 107.862 49.3427C107.861 49.0642 107.691 48.8779 107.461 48.67C107.04 48.2547 106.624 47.8454 106.216 47.4424C105.809 47.04 105.408 46.6446 105.015 46.2569C104.819 46.063 104.625 45.8714 104.433 45.6816C104.232 45.4889 104.075 45.2898 103.843 45.2419C103.619 45.1811 103.371 45.229 103.19 45.3669C103.018 45.5129 102.834 45.719 102.66 45.8884C102.309 46.2423 101.968 46.5863 101.638 46.9191C100.995 47.5866 100.325 48.1969 99.8383 48.7733C99.6333 49.0916 99.7098 49.4817 99.6952 49.8362C99.6946 50.1889 99.694 50.5242 99.6929 50.8395C99.6894 51.4551 99.6859 51.9941 99.6829 52.456C99.6783 52.8689 99.6748 53.2106 99.6713 53.4897C99.6683 53.7292 99.6637 53.8576 99.6584 53.8635C99.6531 53.8687 99.6467 53.7513 99.6386 53.5213C99.631 53.2462 99.6216 52.9104 99.6099 52.5033C99.5994 52.0373 99.5872 51.4942 99.5731 50.8734C99.5673 50.5516 99.5609 50.21 99.5545 49.8502C99.5515 49.668 99.5486 49.4811 99.5457 49.2902C99.5439 49.0881 99.5959 48.879 99.7028 48.6939C100.23 48.048 100.859 47.4769 101.506 46.7895C101.834 46.4537 102.173 46.1068 102.52 45.7505C102.703 45.5713 102.852 45.3926 103.07 45.2057C103.297 45.0305 103.61 44.968 103.895 45.0433C104.198 45.1099 104.396 45.3587 104.579 45.5327C104.772 45.7213 104.967 45.9123 105.164 46.105C105.558 46.4911 105.96 46.8853 106.369 47.2865C106.778 47.6883 107.194 48.0965 107.616 48.5111C107.716 48.6168 107.837 48.7068 107.934 48.8557C108.027 48.9976 108.079 49.1658 108.084 49.3357C108.087 49.6365 108.089 49.9396 108.092 50.2438C108.101 51.4591 108.11 52.6458 108.119 53.7928L108.12 53.902L108.011 53.9026C107.03 53.909 106.077 53.9149 105.163 53.9207L105.058 53.9213L105.057 53.8173C105.053 52.9904 105.049 52.1927 105.045 51.4294C105.057 51.0854 104.789 50.7817 104.47 50.7379C104.142 50.7204 103.756 50.7321 103.437 50.735C103.131 50.7601 102.875 51.006 102.823 51.2886C102.795 51.5748 102.816 51.9088 102.81 52.1985C102.81 52.7883 102.811 53.335 102.811 53.836V53.9003L102.748 53.8997C101.806 53.8933 101.04 53.8874 100.453 53.8833C100.22 53.8792 100.024 53.8757 99.8546 53.8728C99.7215 53.8711 99.6543 53.8676 99.6584 53.8635Z" fill="#263238"/>
<path d="M169.651 51.5549C169.651 51.639 160.752 51.7068 149.777 51.7068C138.798 51.7068 129.901 51.6384 129.901 51.5549C129.901 51.4714 138.798 51.4031 149.777 51.4031C160.752 51.4025 169.651 51.4708 169.651 51.5549Z" fill="#263238"/>
<path d="M168.62 236.129H126.889C121.56 236.129 117.239 231.808 117.239 226.479C117.239 221.149 121.56 216.828 126.889 216.828H168.62C173.949 216.828 178.27 221.149 178.27 226.479C178.27 231.808 173.95 236.129 168.62 236.129Z" fill="#E8505B"/>
<path d="M139.792 227.89L140.141 227.118C140.515 227.39 141.072 227.58 141.604 227.58C142.213 227.58 142.46 227.377 142.46 227.105C142.46 226.275 139.882 226.845 139.882 225.197C139.882 224.443 140.49 223.816 141.75 223.816C142.308 223.816 142.878 223.949 143.29 224.209L142.973 224.988C142.562 224.754 142.137 224.64 141.745 224.64C141.136 224.64 140.902 224.868 140.902 225.147C140.902 225.964 143.481 225.4 143.481 227.029C143.481 227.769 142.866 228.403 141.599 228.403C140.894 228.404 140.185 228.195 139.792 227.89Z" fill="white"/>
<path d="M146.31 228.163C146.106 228.309 145.809 228.378 145.505 228.378C144.7 228.378 144.231 227.967 144.231 227.156V225.755H143.706V224.994H144.231V224.164H145.219V224.994H146.068V225.755H145.219V227.143C145.219 227.434 145.378 227.592 145.644 227.592C145.79 227.592 145.935 227.549 146.043 227.466L146.31 228.163Z" fill="white"/>
<path d="M149.881 226.382V228.328H148.956V227.903C148.772 228.213 148.417 228.378 147.917 228.378C147.118 228.378 146.643 227.935 146.643 227.346C146.643 226.744 147.068 226.326 148.107 226.326H148.893C148.893 225.901 148.639 225.655 148.107 225.655C147.746 225.655 147.372 225.775 147.124 225.971L146.77 225.28C147.144 225.015 147.695 224.869 148.24 224.869C149.279 224.868 149.881 225.35 149.881 226.382ZM148.893 227.25V226.902H148.215C147.752 226.902 147.607 227.073 147.607 227.301C147.607 227.549 147.815 227.713 148.164 227.713C148.493 227.713 148.778 227.561 148.893 227.25Z" fill="white"/>
<path d="M152.889 224.868V225.781C152.806 225.774 152.743 225.769 152.667 225.769C152.122 225.769 151.761 226.066 151.761 226.719V228.328H150.773V224.919H151.716V225.37C151.957 225.039 152.362 224.868 152.889 224.868Z" fill="white"/>
<path d="M155.795 228.163C155.592 228.309 155.295 228.378 154.99 228.378C154.185 228.378 153.717 227.967 153.717 227.156V225.755H153.191V224.994H153.717V224.164H154.705V224.994H155.554V225.755H154.705V227.143C154.705 227.434 154.863 227.592 155.129 227.592C155.275 227.592 155.421 227.549 155.529 227.466L155.795 228.163Z" fill="white"/>
<path d="M187.413 190.341C187.413 190.425 169.471 190.493 147.344 190.493C125.209 190.493 107.271 190.424 107.271 190.341C107.271 190.257 125.209 190.189 147.344 190.189C169.471 190.189 187.413 190.257 187.413 190.341Z" fill="#263238"/>
<path d="M171.448 195.253C171.448 195.338 160.655 195.405 147.344 195.405C134.028 195.405 123.238 195.337 123.238 195.253C123.238 195.169 134.028 195.102 147.344 195.102C160.654 195.102 171.448 195.169 171.448 195.253Z" fill="#263238"/>
<path d="M60.5585 267.614L57.0107 280.732L68.5418 281.785L70.9648 269.296L60.5585 267.614Z" fill="#E8505B"/>
<path d="M68.8766 280.716C68.8731 280.759 68.2271 280.743 67.1876 280.659C66.1481 280.575 64.7173 280.416 63.1417 280.214C61.6239 280.011 60.2503 279.826 59.1115 279.674C58.0813 279.529 57.4442 279.431 57.4483 279.386C57.4523 279.343 58.0977 279.361 59.1366 279.448C60.1755 279.533 61.6063 279.693 63.1826 279.896C64.7004 280.098 66.0734 280.281 67.2127 280.433C68.2435 280.575 68.8812 280.67 68.8766 280.716Z" fill="#263238"/>
<g opacity="0.6">
<path d="M57.0107 280.732L68.5418 281.785L68.7281 280.823L57.3436 279.376L57.0224 280.602" fill="white"/>
</g>
<path d="M62.7393 280.149C62.6669 280.131 63.1574 277.881 63.8354 275.123C64.514 272.364 65.1226 270.143 65.195 270.161C65.2674 270.179 64.7768 272.43 64.0982 275.188C63.4208 277.945 62.8123 280.166 62.7393 280.149Z" fill="#263238"/>
<path d="M68.2393 280.631C68.1686 280.628 68.6072 279.689 68.2655 278.192C68.0898 277.462 67.7067 276.613 67.0035 275.909C66.3115 275.201 65.2731 274.707 64.1337 274.59C62.992 274.481 61.8795 274.756 61.0456 275.292C60.2011 275.821 59.62 276.544 59.2498 277.2C58.5163 278.545 58.5875 279.557 58.5215 279.54C58.5122 279.54 58.5063 279.48 58.5046 279.366C58.4987 279.251 58.5087 279.083 58.5314 278.866C58.5799 278.435 58.7253 277.81 59.0804 277.11C59.4413 276.419 60.0294 275.651 60.9112 275.082C61.7837 274.505 62.9587 274.205 64.16 274.321C65.3596 274.443 66.4563 274.973 67.1805 275.734C67.9134 276.488 68.293 277.387 68.4518 278.151C68.6037 278.924 68.5505 279.568 68.4559 279.992C68.4063 280.205 68.3596 280.367 68.314 280.473C68.2737 280.58 68.248 280.634 68.2393 280.631Z" fill="#263238"/>
<path d="M108.17 264.094L107.398 275.748C107.398 275.748 118.999 279.598 119.065 281.766L96.4001 281.93L96.858 263.72L108.17 264.094Z" fill="#E8505B"/>
<g opacity="0.6">
<path d="M100.423 274.555C99.9813 274.662 99.6636 275.146 99.7518 275.592C99.84 276.038 100.329 276.365 100.773 276.266C101.217 276.168 101.617 275.598 101.479 275.166C101.341 274.732 100.746 274.379 100.339 274.582" fill="white"/>
</g>
<g opacity="0.6">
<path d="M96.4006 281.93L96.4468 280.095L118.337 280.699C118.337 280.699 119.066 281.013 119.181 281.93H96.4006Z" fill="white"/>
</g>
<path d="M107.769 275.644C107.762 275.755 107.207 275.788 106.652 276.127C106.088 276.452 105.793 276.923 105.693 276.876C105.591 276.852 105.776 276.195 106.455 275.796C107.131 275.392 107.796 275.544 107.769 275.644Z" fill="#263238"/>
<path d="M110.115 276.699C110.137 276.807 109.652 276.981 109.262 277.437C108.859 277.882 108.749 278.385 108.639 278.377C108.535 278.391 108.477 277.741 108.973 277.183C109.464 276.62 110.116 276.594 110.115 276.699Z" fill="#263238"/>
<path d="M111.379 279.584C111.278 279.604 111.14 279.047 111.442 278.449C111.74 277.85 112.269 277.627 112.313 277.721C112.373 277.813 112.027 278.128 111.786 278.622C111.534 279.111 111.488 279.576 111.379 279.584Z" fill="#263238"/>
<path d="M107.65 272.969C107.601 273.068 107.098 272.9 106.471 272.924C105.845 272.935 105.352 273.13 105.297 273.033C105.235 272.951 105.723 272.556 106.461 272.539C107.199 272.516 107.707 272.883 107.65 272.969Z" fill="#263238"/>
<path d="M107.762 270.615C107.762 270.661 107.323 270.716 106.628 270.574C106.283 270.504 105.876 270.377 105.453 270.174C105.241 270.071 105.025 269.951 104.811 269.808C104.709 269.738 104.587 269.666 104.477 269.531C104.358 269.412 104.297 269.117 104.444 268.941C104.566 268.771 104.773 268.702 104.936 268.703C105.103 268.702 105.238 268.74 105.36 268.775C105.611 268.844 105.845 268.934 106.058 269.038C106.485 269.248 106.829 269.508 107.084 269.757C107.595 270.259 107.761 270.678 107.723 270.698C107.672 270.733 107.427 270.379 106.904 269.961C106.643 269.753 106.309 269.536 105.909 269.36C105.709 269.273 105.493 269.197 105.264 269.139C105.026 269.069 104.822 269.061 104.757 269.166C104.734 269.206 104.73 269.222 104.778 269.294C104.828 269.361 104.924 269.427 105.024 269.497C105.22 269.633 105.419 269.753 105.613 269.858C106.003 270.066 106.377 270.211 106.697 270.311C107.34 270.511 107.766 270.555 107.762 270.615Z" fill="#263238"/>
<path d="M107.613 270.769C107.574 270.784 107.366 270.381 107.348 269.664C107.34 269.308 107.389 268.878 107.54 268.426C107.616 268.201 107.718 267.971 107.85 267.746C107.99 267.526 108.161 267.231 108.591 267.195C108.815 267.193 108.996 267.374 109.055 267.526C109.125 267.681 109.137 267.813 109.159 267.945C109.193 268.211 109.18 268.47 109.137 268.709C109.051 269.189 108.842 269.584 108.617 269.866C108.157 270.44 107.691 270.558 107.683 270.52C107.648 270.464 108.04 270.262 108.395 269.708C108.571 269.435 108.731 269.073 108.787 268.653C108.815 268.444 108.819 268.221 108.786 267.996C108.758 267.755 108.673 267.558 108.582 267.579C108.47 267.574 108.273 267.75 108.174 267.939C108.051 268.139 107.953 268.344 107.875 268.545C107.72 268.951 107.646 269.341 107.621 269.671C107.569 270.336 107.674 270.753 107.613 270.769Z" fill="#263238"/>
<path d="M108.171 162.838L73.6365 162.578L56.9487 272.183L71.2813 274.002L89.6498 183.881L95.147 274.322L95.1616 274.592L110.662 274.321L108.171 162.838Z" fill="#263238"/>
<path d="M92.4635 171.72C92.4524 171.709 92.7012 171.694 93.1771 171.674C93.6945 171.655 94.3901 171.629 95.2544 171.597C97.1051 171.545 99.6724 171.472 102.718 171.386L102.86 171.382L102.86 171.525C102.866 173.691 102.872 176.113 102.878 178.684V178.753L102.827 178.8C102.412 179.181 101.972 179.586 101.527 179.996C100.197 181.215 98.9114 182.393 97.6955 183.507L97.5939 183.6L97.4917 183.509C95.5925 181.817 93.8598 180.272 92.3829 178.956L92.3408 178.918L92.3414 178.864C92.3683 176.687 92.3899 174.899 92.4062 173.612C92.4191 173.026 92.4296 172.556 92.4372 172.196C92.4459 171.875 92.4547 171.711 92.4635 171.72C92.4722 171.729 92.481 171.91 92.4903 172.244C92.4979 172.61 92.5084 173.089 92.5213 173.686C92.537 174.955 92.5592 176.718 92.5861 178.864L92.5446 178.772C94.0327 180.076 95.7788 181.605 97.6926 183.281L97.4888 183.283C98.7023 182.166 99.986 180.984 101.313 179.763C101.758 179.354 102.199 178.949 102.614 178.569L102.563 178.684C102.57 176.113 102.575 173.692 102.581 171.525L102.723 171.665C99.7127 171.693 97.1752 171.718 95.3461 171.735C94.4683 171.736 93.7617 171.737 93.2361 171.737C93.0107 171.735 92.8244 171.733 92.669 171.732C92.5388 171.729 92.4687 171.725 92.4635 171.72Z" fill="#455A64"/>
<path d="M76.2102 171.245C76.2009 171.233 76.4222 171.246 76.8474 171.278C77.314 171.316 77.9354 171.367 78.7057 171.43C80.3695 171.58 82.6739 171.789 85.4217 172.038L85.5606 172.051L85.5437 172.192C85.2908 174.31 85.0023 176.724 84.6946 179.3L84.687 179.363L84.6368 179.404C84.1614 179.783 83.658 180.185 83.1481 180.592C81.8774 181.604 80.6457 182.584 79.4754 183.515L79.3551 183.611L79.2605 183.491C77.7771 181.615 76.4158 179.895 75.2455 178.415L75.2122 178.373L75.2192 178.321C75.5094 176.172 75.7483 174.401 75.9211 173.121C76.0052 172.542 76.073 172.074 76.125 171.717C76.1734 171.398 76.2026 171.235 76.2102 171.245C76.2184 171.255 76.205 171.437 76.1734 171.771C76.1366 172.138 76.0887 172.617 76.0292 173.211C75.8908 174.476 75.6992 176.227 75.4668 178.351L75.4405 178.258C76.6237 179.728 77.9996 181.437 79.4993 183.3L79.285 183.276C80.4536 182.342 81.6829 181.359 82.9513 180.345C83.4617 179.939 83.9657 179.537 84.4411 179.158L84.3833 179.262C84.7051 176.688 85.0076 174.276 85.2722 172.159L85.3948 172.312C82.6879 172.01 80.4179 171.756 78.7787 171.573C77.9984 171.479 77.37 171.404 76.8976 171.347C76.459 171.291 76.2196 171.257 76.2102 171.245Z" fill="#455A64"/>
<path d="M97.3387 187.882C97.3159 187.921 96.7237 187.618 95.7729 187.121C94.8222 186.624 93.5094 185.938 92.0464 185.207C90.5824 184.477 89.245 183.841 88.2756 183.381C87.3067 182.92 86.7087 182.629 86.7262 182.588C86.7426 182.549 87.3715 182.767 88.3661 183.176C89.3606 183.586 90.7178 184.192 92.1872 184.924C93.6554 185.657 94.9565 186.377 95.8816 186.925C96.8072 187.473 97.3603 187.845 97.3387 187.882Z" fill="#455A64"/>
<path d="M96.8949 190.543C96.882 190.577 96.4148 190.449 95.717 190.1C95.0202 189.752 94.1063 189.155 93.2536 188.318C92.4028 187.477 91.7919 186.573 91.4345 185.881C91.0742 185.189 90.9392 184.724 90.9737 184.71C91.0648 184.661 91.7989 186.461 93.4761 188.092C95.1312 189.744 96.9428 190.451 96.8949 190.543Z" fill="#455A64"/>
<path d="M106.644 222.213C106.662 222.219 106.616 222.426 106.487 222.785C106.359 223.145 106.13 223.653 105.767 224.236C105.056 225.396 103.692 226.848 101.737 227.675C99.7792 228.499 97.7872 228.463 96.4598 228.163C95.7894 228.016 95.2655 227.827 94.9186 227.667C94.5705 227.508 94.3913 227.397 94.3994 227.38C94.4228 227.323 95.1797 227.712 96.5018 227.943C97.8088 228.181 99.7296 228.177 101.614 227.384C103.496 226.587 104.838 225.214 105.58 224.112C106.337 223.004 106.586 222.19 106.644 222.213Z" fill="#455A64"/>
<path d="M104.373 221.279C104.389 221.312 103.905 221.588 103.053 221.862C102.205 222.14 100.981 222.38 99.6182 222.429C98.2557 222.486 97.0252 222.359 96.1475 222.225C95.2691 222.085 94.7377 221.939 94.7447 221.901C94.7599 221.793 96.9236 222.213 99.6053 222.113C100.943 222.065 102.143 221.865 102.991 221.647C103.843 221.432 104.353 221.232 104.373 221.279Z" fill="#455A64"/>
<path d="M78.6969 221.931C78.7208 221.957 78.298 222.414 77.4956 223.019C76.6961 223.625 75.4948 224.348 74.0541 224.887C72.6116 225.422 71.2293 225.66 70.2289 225.725C69.2262 225.792 68.6071 225.722 68.6089 225.687C68.6095 225.635 69.2262 225.625 70.2073 225.502C71.1878 225.382 72.5322 225.114 73.9443 224.59C75.3547 224.062 76.5466 223.386 77.3671 222.836C78.1894 222.288 78.663 221.892 78.6969 221.931Z" fill="#455A64"/>
<path d="M75.6694 221.798C75.6887 221.874 74.2725 222.204 72.5024 222.058C70.7311 221.922 69.3856 221.372 69.4165 221.299C69.4446 221.208 70.8024 221.611 72.5275 221.742C74.2515 221.887 75.656 221.703 75.6694 221.798Z" fill="#455A64"/>
<path d="M89.4441 184.637C89.4593 184.672 88.88 184.973 87.8913 185.34C86.9037 185.708 85.4986 186.118 83.9072 186.374C82.3147 186.628 80.8511 186.677 79.7988 186.636C78.7447 186.596 78.1005 186.49 78.104 186.452C78.1081 186.403 78.7563 186.43 79.8005 186.412C80.8447 186.396 82.2855 186.312 83.8576 186.062C85.428 185.81 86.8231 185.439 87.82 185.129C88.8169 184.818 89.4249 184.591 89.4441 184.637Z" fill="#455A64"/>
<path d="M88.5018 181.098C88.5888 181.098 88.6636 181.369 88.6682 181.703C88.6729 182.038 88.6057 182.311 88.5181 182.313C88.4311 182.314 88.3564 182.043 88.3523 181.708C88.3476 181.372 88.4148 181.099 88.5018 181.098Z" fill="#455A64"/>
<path d="M88.5046 178.67C88.5916 178.671 88.6611 178.943 88.6588 179.278C88.657 179.613 88.5846 179.884 88.497 179.884C88.41 179.884 88.3405 179.612 88.3428 179.276C88.3452 178.941 88.4176 178.669 88.5046 178.67Z" fill="#455A64"/>
<path d="M88.5541 176.242C88.6411 176.245 88.7054 176.519 88.6966 176.853C88.6879 177.188 88.6102 177.458 88.5232 177.456C88.4362 177.454 88.3719 177.181 88.3807 176.845C88.3894 176.51 88.4671 176.24 88.5541 176.242Z" fill="#455A64"/>
<path d="M88.6517 173.816C88.7387 173.821 88.7971 174.096 88.7825 174.43C88.7674 174.765 88.6844 175.033 88.5974 175.029C88.5104 175.026 88.452 174.751 88.4666 174.416C88.4812 174.08 88.5641 173.812 88.6517 173.816Z" fill="#455A64"/>
<path d="M88.7955 171.392C88.8825 171.398 88.9357 171.674 88.9147 172.008C88.8931 172.342 88.8049 172.609 88.7179 172.604C88.6308 172.599 88.5777 172.323 88.5993 171.988C88.6203 171.653 88.7085 171.386 88.7955 171.392Z" fill="#455A64"/>
<path d="M88.9863 168.972C89.0733 168.98 89.1212 169.257 89.0932 169.59C89.0651 169.924 88.9717 170.189 88.8847 170.182C88.7976 170.175 88.7498 169.898 88.7778 169.564C88.8064 169.229 88.8993 168.965 88.9863 168.972Z" fill="#455A64"/>
<path d="M89.178 166.99C89.265 166.999 89.3176 167.179 89.2959 167.392C89.2743 167.606 89.1862 167.772 89.0991 167.763C89.0121 167.755 88.9596 167.575 88.9812 167.36C89.0034 167.147 89.0915 166.981 89.178 166.99Z" fill="#455A64"/>
<path d="M69.6547 271.597C69.7406 271.614 69.7563 271.895 69.6909 272.223C69.6249 272.552 69.5023 272.804 69.417 272.788C69.3318 272.771 69.3154 272.49 69.3814 272.162C69.4468 271.833 69.5694 271.58 69.6547 271.597Z" fill="#455A64"/>
<path d="M70.1312 269.217C70.2164 269.234 70.2328 269.514 70.1668 269.843C70.1008 270.172 69.9782 270.424 69.8929 270.407C69.8071 270.39 69.7913 270.11 69.8567 269.781C69.9227 269.452 70.0453 269.199 70.1312 269.217Z" fill="#455A64"/>
<path d="M70.6071 266.836C70.6929 266.853 70.7087 267.133 70.6433 267.462C70.5773 267.791 70.4547 268.043 70.3694 268.026C70.2841 268.009 70.2678 267.729 70.3338 267.4C70.3992 267.071 70.5218 266.819 70.6071 266.836Z" fill="#455A64"/>
<path d="M71.0838 264.456C71.169 264.473 71.1854 264.753 71.12 265.082C71.054 265.41 70.9314 265.663 70.8461 265.646C70.7608 265.629 70.7445 265.349 70.8099 265.02C70.8753 264.691 70.9979 264.438 71.0838 264.456Z" fill="#455A64"/>
<path d="M71.5597 262.075C71.6456 262.092 71.6614 262.372 71.5959 262.701C71.53 263.029 71.4073 263.282 71.322 263.265C71.2368 263.248 71.2204 262.968 71.2864 262.639C71.3518 262.31 71.4745 262.058 71.5597 262.075Z" fill="#455A64"/>
<path d="M72.0363 259.694C72.1222 259.711 72.138 259.992 72.0726 260.32C72.0072 260.649 71.8839 260.901 71.7987 260.884C71.7128 260.868 71.697 260.587 71.7625 260.258C71.8279 259.93 71.9505 259.677 72.0363 259.694Z" fill="#455A64"/>
<path d="M72.5121 257.313C72.598 257.33 72.6137 257.611 72.5483 257.939C72.4823 258.268 72.3597 258.52 72.2744 258.504C72.1892 258.487 72.1728 258.206 72.2388 257.877C72.3042 257.549 72.4269 257.296 72.5121 257.313Z" fill="#455A64"/>
<path d="M72.9887 254.933C73.0746 254.95 73.0904 255.23 73.0249 255.559C72.959 255.888 72.8363 256.14 72.7511 256.123C72.6652 256.106 72.6494 255.826 72.7148 255.497C72.7803 255.168 72.9029 254.915 72.9887 254.933Z" fill="#455A64"/>
<path d="M73.4648 252.552C73.55 252.569 73.5664 252.849 73.501 253.178C73.435 253.507 73.3123 253.759 73.2271 253.742C73.1418 253.725 73.1255 253.445 73.1915 253.116C73.2569 252.787 73.3795 252.535 73.4648 252.552Z" fill="#455A64"/>
<path d="M73.9413 250.172C74.0271 250.189 74.0429 250.469 73.9775 250.798C73.9115 251.126 73.7888 251.379 73.7036 251.362C73.6177 251.345 73.602 251.065 73.6679 250.736C73.7328 250.407 73.8554 250.154 73.9413 250.172Z" fill="#455A64"/>
<path d="M74.4172 247.791C74.503 247.808 74.5188 248.088 74.4534 248.417C74.3874 248.745 74.2647 248.998 74.1795 248.981C74.0942 248.964 74.0779 248.684 74.1438 248.355C74.2093 248.026 74.3319 247.774 74.4172 247.791Z" fill="#455A64"/>
<path d="M74.8938 245.41C74.9796 245.427 74.9954 245.707 74.93 246.036C74.864 246.365 74.7413 246.617 74.6561 246.6C74.5702 246.583 74.5545 246.303 74.6199 245.974C74.6853 245.646 74.8079 245.393 74.8938 245.41Z" fill="#455A64"/>
<path d="M75.3696 243.029C75.4555 243.046 75.4713 243.326 75.4053 243.655C75.3393 243.984 75.2166 244.236 75.1314 244.219C75.0461 244.203 75.0298 243.922 75.0958 243.593C75.1617 243.265 75.2844 243.012 75.3696 243.029Z" fill="#455A64"/>
<path d="M75.8462 240.648C75.9321 240.665 75.9478 240.946 75.8818 241.274C75.8158 241.603 75.6932 241.855 75.6079 241.838C75.5227 241.822 75.5063 241.541 75.5723 241.212C75.6377 240.884 75.7604 240.631 75.8462 240.648Z" fill="#455A64"/>
<path d="M76.3222 238.268C76.408 238.285 76.4238 238.566 76.3584 238.894C76.2924 239.223 76.1698 239.475 76.0845 239.458C75.9992 239.441 75.9829 239.161 76.0489 238.832C76.1143 238.503 76.2369 238.251 76.3222 238.268Z" fill="#455A64"/>
<path d="M76.7988 235.887C76.8846 235.904 76.9004 236.184 76.835 236.513C76.769 236.842 76.6463 237.094 76.5611 237.077C76.4758 237.06 76.4594 236.78 76.5254 236.451C76.5903 236.123 76.7129 235.87 76.7988 235.887Z" fill="#455A64"/>
<path d="M77.2747 233.507C77.36 233.523 77.3763 233.804 77.3109 234.133C77.2449 234.461 77.1223 234.714 77.037 234.697C76.9517 234.68 76.9354 234.399 77.0008 234.071C77.0668 233.742 77.1894 233.49 77.2747 233.507Z" fill="#455A64"/>
<path d="M77.7514 231.126C77.8372 231.143 77.853 231.423 77.7876 231.752C77.7216 232.08 77.599 232.333 77.5137 232.316C77.4284 232.299 77.4121 232.019 77.4781 231.69C77.5429 231.362 77.6655 231.109 77.7514 231.126Z" fill="#455A64"/>
<path d="M78.2273 228.745C78.3126 228.762 78.3289 229.042 78.2629 229.371C78.1969 229.7 78.0743 229.953 77.989 229.935C77.9038 229.918 77.8874 229.638 77.9534 229.309C78.0188 228.981 78.1421 228.728 78.2273 228.745Z" fill="#455A64"/>
<path d="M78.7038 226.364C78.7896 226.381 78.8054 226.662 78.74 226.99C78.674 227.319 78.5514 227.571 78.4661 227.554C78.3808 227.538 78.3645 227.257 78.4305 226.928C78.4953 226.6 78.6179 226.347 78.7038 226.364Z" fill="#455A64"/>
<path d="M79.1799 223.984C79.2657 224.001 79.2815 224.281 79.2161 224.61C79.1501 224.939 79.0274 225.192 78.9422 225.174C78.8569 225.157 78.8405 224.877 78.9065 224.548C78.9714 224.219 79.0946 223.967 79.1799 223.984Z" fill="#455A64"/>
<path d="M79.6563 221.603C79.7421 221.62 79.7579 221.9 79.6925 222.229C79.6265 222.558 79.5039 222.81 79.4186 222.793C79.3333 222.776 79.317 222.496 79.3824 222.167C79.4478 221.839 79.5704 221.586 79.6563 221.603Z" fill="#455A64"/>
<path d="M80.1322 219.223C80.218 219.239 80.2338 219.52 80.1684 219.849C80.1024 220.177 79.9798 220.43 79.8945 220.413C79.8086 220.396 79.7929 220.115 79.8589 219.787C79.9237 219.458 80.0469 219.206 80.1322 219.223Z" fill="#455A64"/>
<path d="M80.6088 216.842C80.6947 216.858 80.7104 217.139 80.645 217.468C80.579 217.796 80.4564 218.049 80.3711 218.032C80.2859 218.015 80.2695 217.734 80.3355 217.406C80.4003 217.077 80.523 216.825 80.6088 216.842Z" fill="#455A64"/>
<path d="M81.0848 214.461C81.1706 214.478 81.1864 214.758 81.1204 215.087C81.0544 215.416 80.9318 215.668 80.8465 215.651C80.7607 215.634 80.7449 215.354 80.8103 215.025C80.8763 214.697 80.9995 214.444 81.0848 214.461Z" fill="#455A64"/>
<path d="M81.5612 212.08C81.647 212.097 81.6628 212.377 81.5974 212.706C81.5314 213.035 81.4088 213.287 81.3235 213.27C81.2383 213.253 81.2219 212.973 81.2879 212.644C81.3527 212.316 81.4754 212.063 81.5612 212.08Z" fill="#455A64"/>
<path d="M82.0372 209.7C82.1224 209.717 82.1388 209.997 82.0728 210.326C82.0068 210.655 81.8842 210.907 81.7989 210.89C81.7131 210.873 81.6973 210.593 81.7627 210.264C81.8287 209.935 81.9519 209.683 82.0372 209.7Z" fill="#455A64"/>
<path d="M82.5131 207.319C82.5989 207.336 82.6147 207.616 82.5493 207.945C82.4833 208.274 82.3607 208.526 82.2754 208.509C82.1901 208.492 82.1738 208.212 82.2398 207.883C82.3052 207.555 82.4278 207.302 82.5131 207.319Z" fill="#455A64"/>
<path d="M82.9897 204.938C83.0749 204.955 83.0913 205.236 83.0259 205.564C82.9599 205.893 82.8372 206.146 82.752 206.129C82.6667 206.112 82.6504 205.831 82.7164 205.503C82.7812 205.174 82.9044 204.921 82.9897 204.938Z" fill="#455A64"/>
<path d="M83.4663 202.557C83.5522 202.574 83.5679 202.855 83.5019 203.184C83.436 203.512 83.3133 203.765 83.2281 203.748C83.1428 203.731 83.1264 203.45 83.1924 203.122C83.2578 202.793 83.3805 202.541 83.4663 202.557Z" fill="#455A64"/>
<path d="M83.9423 200.177C84.0276 200.194 84.0439 200.474 83.9785 200.803C83.9125 201.132 83.7899 201.384 83.7046 201.367C83.6194 201.35 83.603 201.07 83.669 200.741C83.7338 200.412 83.857 200.16 83.9423 200.177Z" fill="#455A64"/>
<path d="M84.4187 197.796C84.504 197.813 84.5203 198.093 84.4543 198.422C84.3883 198.751 84.2657 199.003 84.1804 198.986C84.0952 198.969 84.0788 198.689 84.1448 198.36C84.2102 198.031 84.3329 197.779 84.4187 197.796Z" fill="#455A64"/>
<path d="M84.8947 195.416C84.9806 195.433 84.9963 195.713 84.9303 196.042C84.8649 196.371 84.7417 196.623 84.6565 196.606C84.5706 196.589 84.5548 196.309 84.6208 195.98C84.6862 195.651 84.8095 195.398 84.8947 195.416Z" fill="#455A64"/>
<path d="M85.3713 193.035C85.4565 193.052 85.4729 193.332 85.4075 193.661C85.3415 193.99 85.2188 194.242 85.1336 194.225C85.0483 194.208 85.032 193.928 85.098 193.599C85.1628 193.271 85.2854 193.018 85.3713 193.035Z" fill="#455A64"/>
<path d="M85.8473 190.654C85.9331 190.671 85.9489 190.952 85.8835 191.28C85.8175 191.609 85.6948 191.862 85.6096 191.845C85.5237 191.828 85.508 191.547 85.574 191.219C85.6388 190.89 85.762 190.637 85.8473 190.654Z" fill="#455A64"/>
<path d="M86.3239 188.273C86.4092 188.29 86.4255 188.571 86.3601 188.899C86.2941 189.228 86.1715 189.481 86.0862 189.464C86.0009 189.447 85.9846 189.166 86.0506 188.838C86.1154 188.509 86.238 188.256 86.3239 188.273Z" fill="#455A64"/>
<path d="M86.7998 185.893C86.8856 185.91 86.9014 186.19 86.8354 186.519C86.7694 186.848 86.6467 187.1 86.5615 187.083C86.4756 187.066 86.4599 186.786 86.5259 186.457C86.5913 186.128 86.7139 185.876 86.7998 185.893Z" fill="#455A64"/>
<path d="M134.404 112.475C134.404 112.475 138.445 106.417 138.552 106.364C138.552 106.364 142.2 100.221 143.412 100.22C144.632 100.219 144.187 101.465 142.935 103.666C141.837 105.595 141.726 106.8 141.726 106.8L144.722 108.609C144.722 108.609 146.723 107.834 146.806 109.7C146.834 110.323 146.67 111.095 146.462 112.233C146.34 112.897 146.04 113.605 145.413 113.355C145.126 113.241 144.891 113.019 144.877 112.605C144.838 111.501 145.045 111.097 144.904 111.096C144.724 111.095 142.748 116.885 142.748 116.885L134.404 112.475Z" fill="#FFBE9D"/>
<path d="M142.563 107.719C142.872 107.508 143.182 107.295 143.524 107.146C143.867 106.998 144.247 106.915 144.615 106.977C144.847 107.016 145.076 107.117 145.223 107.3C145.424 107.551 145.438 107.914 145.338 108.22C145.238 108.526 145.041 108.789 144.847 109.045" fill="#FFBE9D"/>
<path d="M141.197 106.497C141.489 106.298 141.783 106.098 142.108 105.957C142.432 105.817 142.793 105.74 143.141 105.797C143.36 105.834 143.577 105.929 143.716 106.102C143.907 106.338 143.92 106.68 143.825 106.968C143.73 107.256 143.078 107.924 142.894 108.166" fill="#FFBE9D"/>
<path d="M135.812 109.056L129.973 121.543L136.41 128.122L139.764 118.815C139.764 118.815 141.562 119.173 142.295 117.981C143.113 116.65 144.187 112.804 144.187 112.804L135.812 109.056Z" fill="#FFBE9D"/>
<path d="M139.984 108.711C139.921 108.692 140.067 107.855 140.675 106.984C140.984 106.553 141.378 106.259 141.676 106.098C141.975 105.935 142.18 105.88 142.198 105.917C142.254 106.009 141.499 106.383 140.929 107.172C140.37 107.966 140.081 108.752 139.984 108.711Z" fill="#EB996E"/>
<path d="M146.462 108.763C146.435 108.804 146.236 108.696 145.896 108.637C145.562 108.577 145.067 108.585 144.62 108.832C144.174 109.08 143.883 109.487 143.672 109.772C143.463 110.064 143.325 110.248 143.285 110.226C143.249 110.205 143.315 109.988 143.481 109.655C143.65 109.334 143.931 108.856 144.467 108.554C145.006 108.258 145.592 108.293 145.951 108.42C146.321 108.548 146.484 108.734 146.462 108.763Z" fill="#EB996E"/>
<path d="M144.288 107.002C144.305 107.096 143.567 107.221 142.916 107.808C142.263 108.385 141.943 109.063 141.853 109.019C141.782 109.001 141.981 108.22 142.708 107.57C143.069 107.253 143.479 107.073 143.783 107.007C144.089 106.94 144.283 106.963 144.288 107.002Z" fill="#EB996E"/>
<path d="M145.723 109.699C145.806 109.667 145.959 110.152 145.652 110.636C145.349 111.123 144.847 111.195 144.84 111.108C144.813 111.022 145.154 110.848 145.384 110.468C145.626 110.096 145.634 109.713 145.723 109.699Z" fill="#EB996E"/>
<path d="M134.418 112.232C134.418 112.232 134.214 108.505 135.115 107.662C136.015 106.818 138.597 107.694 138.597 107.694" fill="#FFBE9D"/>
<path d="M138.961 105.918C139.03 105.972 138.432 106.923 137.626 108.042C136.819 109.161 136.107 110.029 136.034 109.981C135.961 109.933 136.559 108.982 137.369 107.857C138.18 106.732 138.893 105.863 138.961 105.918Z" fill="#EB996E"/>
<path d="M87.2677 77.6644L87.179 106.745L99.6555 107.34L100.016 100.267C100.016 100.267 104.448 101.147 105.591 97.031C106.322 94.4019 106.139 74.0851 106.139 74.0851L87.2677 77.6644Z" fill="#FFBE9D"/>
<path d="M107.779 76.1332C105.814 76.6956 105.387 79.9076 105.387 79.9076L102.305 86.7158C100.735 85.4865 98.6265 85.5572 98.227 88.316C97.9385 90.3098 100.418 90.7133 100.418 90.7133C98.9745 93.169 97.9952 95.1558 95.8939 97.4918C93.6198 100.02 92.3455 100.275 89.8793 100.316H87.1596C87.1596 100.316 85.8281 95.9944 83.363 85.1869C80.6276 73.1968 94.8059 74.7415 97.4345 71.6807C101.716 66.6963 113.975 74.3596 107.779 76.1332Z" fill="#263238"/>
<path d="M83.6229 86.317C81.3248 84.7734 81.1175 80.4536 82.4578 77.8636C83.7986 75.2735 86.6205 73.5186 89.5364 73.4619C89.9265 73.4544 90.3289 73.473 90.6928 73.3323C91.2324 73.1238 91.5816 72.6128 91.9343 72.1544C93.9883 69.4837 96.0066 66.8598 99.8347 66.8604C100.457 66.8604 101.145 66.8604 102.241 67.4573C102.787 67.7545 103.558 68.7625 103.687 69.3704C104.406 69.0294 105.139 68.6842 105.926 68.5651C106.713 68.446 107.577 68.5838 108.172 69.1129C108.766 69.6426 108.987 70.6167 108.525 71.2649C109.815 71.1832 111.038 72.2513 111.241 73.5279C111.445 74.8046 109.615 75.7022 109.425 75.8014C109.425 75.8014 110.429 77.9038 108.034 79.1641C107.07 79.6716 105.816 79.0602 105.674 78.9866" fill="#263238"/>
<path d="M92.7322 89.1131C92.8128 89.105 92.9366 90.1135 92.6609 91.3212C92.3923 92.5307 91.8486 93.3892 91.7791 93.3471C91.6956 93.3051 92.0956 92.4145 92.3526 91.2518C92.6183 90.0919 92.6387 89.1155 92.7322 89.1131Z" fill="#455A64"/>
<path d="M94.2406 87.6864C94.3247 87.6899 94.3428 88.6518 94.1244 89.8122C93.9095 90.9738 93.5456 91.8644 93.4656 91.8369C93.3798 91.8095 93.6029 90.8932 93.8137 89.7544C94.0286 88.6162 94.1507 87.6806 94.2406 87.6864Z" fill="#455A64"/>
<path d="M98.5623 82.8865C98.592 82.928 98.2387 83.1856 97.7902 83.7117C97.3376 84.2321 96.8225 85.0456 96.4458 86.0326C96.068 87.0201 95.8607 87.9656 95.7001 88.6477C95.5436 89.3316 95.4355 89.7556 95.3911 89.7474C95.3497 89.7404 95.3795 89.3047 95.4805 88.6062C95.5856 87.9101 95.7608 86.9395 96.1509 85.9187C96.5405 84.8973 97.1122 84.061 97.6261 83.5605C98.1371 83.0518 98.5442 82.8562 98.5623 82.8865Z" fill="#455A64"/>
<path d="M100.309 79.6191C100.346 79.6091 100.473 79.9005 100.551 80.4057C100.63 80.9091 100.632 81.6298 100.443 82.3913C100.251 83.1528 99.9083 83.7871 99.6012 84.1935C99.294 84.6029 99.044 84.7991 99.0166 84.7728C98.9383 84.7133 99.7828 83.7742 100.136 82.3142C100.513 80.8612 100.212 79.6348 100.309 79.6191Z" fill="#455A64"/>
<path d="M85.4187 86.8823C85.3761 86.9588 84.9941 86.8262 84.5655 86.5868C84.1368 86.3473 83.8238 86.0915 83.8664 86.015C83.9091 85.9391 84.291 86.0711 84.7197 86.3111C85.1483 86.55 85.4613 86.8064 85.4187 86.8823Z" fill="#455A64"/>
<path d="M91.4467 83.7771C91.529 83.7894 91.4776 84.4055 91.0904 85.0421C90.7067 85.6816 90.1852 86.0133 90.1362 85.9461C90.0766 85.8766 90.469 85.4661 90.8194 84.8786C91.1769 84.2952 91.3573 83.7573 91.4467 83.7771Z" fill="#455A64"/>
<path d="M93.3004 82.782C93.381 82.8001 93.2502 83.5383 92.745 84.2934C92.2451 85.0526 91.6156 85.4596 91.5677 85.3925C91.5087 85.3218 92.0133 84.8318 92.4817 84.1188C92.9565 83.411 93.2122 82.7551 93.3004 82.782Z" fill="#455A64"/>
<path d="M102.512 70.6027C102.491 70.6278 102.278 70.4245 101.828 70.1688C101.378 69.9217 100.66 69.6513 99.7384 69.6286C98.8256 69.5999 97.7049 69.8172 96.6712 70.4526C95.6375 71.0868 94.723 72.1199 94.059 73.3621C93.5754 74.2649 93.2408 75.2052 92.999 76.0888L92.9488 76.2716L92.7812 76.1834C91.8549 75.6969 90.8738 75.4831 89.9978 75.4715C89.1183 75.4475 88.3445 75.6087 87.7319 75.8137C86.4991 76.2348 85.9139 76.789 85.8818 76.7393C85.8724 76.7282 86.0109 76.5893 86.2993 76.3697C86.5896 76.1542 87.0445 75.8738 87.6683 75.635C88.2902 75.3985 89.0862 75.2075 90.0013 75.2128C90.9124 75.2058 91.9431 75.4119 92.9243 75.9165L92.707 76.0111C92.9453 75.1076 93.2828 74.1429 93.7816 73.212C94.4666 71.9307 95.4249 70.8561 96.5217 70.2026C97.6208 69.5474 98.7969 69.3459 99.7489 69.4043C100.71 69.4574 101.448 69.7746 101.893 70.0625C102.112 70.2155 102.276 70.3393 102.372 70.4426C102.471 70.5408 102.52 70.5951 102.512 70.6027Z" fill="#455A64"/>
<path d="M109.074 72.1853C109.051 72.1795 109.421 72.0919 109.79 72.5095C109.958 72.7104 110.113 73.0281 110.077 73.4205C110.039 73.8118 109.769 74.2153 109.352 74.4565C108.941 74.7082 108.379 74.7917 107.836 74.665C107.29 74.5459 106.765 74.2562 106.272 73.907C105.776 73.5601 105.3 73.1571 104.743 72.8587C104.187 72.5568 103.561 72.3366 102.9 72.211C101.572 71.9634 100.252 72.1129 99.1381 72.4686C98.0174 72.8277 97.087 73.3674 96.3576 73.8819C94.9011 74.929 94.1822 75.8056 94.1378 75.76C94.1232 75.7472 94.2897 75.5211 94.6313 75.1451C94.9759 74.7736 95.4968 74.2498 96.2256 73.7008C96.9521 73.1536 97.8941 72.5784 99.0475 72.1912C100.197 71.8069 101.568 71.641 102.958 71.8998C103.65 72.0312 104.308 72.2648 104.892 72.5865C105.481 72.9083 105.963 73.3265 106.441 73.6687C106.915 74.0156 107.4 74.2901 107.894 74.4086C108.385 74.533 108.869 74.4705 109.24 74.2615C109.613 74.0617 109.854 73.7213 109.901 73.3977C109.948 73.0689 109.831 72.7752 109.693 72.5848C109.396 72.1888 109.057 72.2204 109.074 72.1853Z" fill="#455A64"/>
<path d="M73.9845 109.791L62.8417 128.504C61.5949 130.686 60.4409 133.014 59.3401 135.426C58.4518 137.737 58.9651 140.753 60.5163 142.671L60.2015 142.218C61.4372 143.746 63.2973 144.635 65.263 144.635H65.5509C68.1415 144.635 70.4851 143.099 71.5188 140.723L75.0987 135.291L73.9845 109.791Z" fill="#E8505B"/>
<path d="M107.606 106.216C104.615 104.688 101.661 104.343 98.4388 104.249C94.6866 104.139 89.3968 103.614 85.3531 104.044C85.3531 104.044 73.832 104.897 73.0319 112.793L74.6052 149.877L71.9673 165.589L108.89 166.705L108.626 148.168C109.082 138.523 108.108 124.866 108.108 124.866C108.676 119.681 111.513 117.347 111.916 113.976C112.272 110.995 110.279 107.581 107.606 106.216Z" fill="#E8505B"/>
<path d="M97.1996 150.41C97.2119 150.424 97.0261 150.615 96.6565 150.924C96.2874 151.234 95.7221 151.647 94.9734 152.078C93.4894 152.944 91.1786 153.813 88.519 153.859C85.8589 153.907 83.5182 153.12 82.0045 152.307C81.2412 151.903 80.6613 151.51 80.2817 151.213C79.9009 150.918 79.7088 150.733 79.7205 150.719C79.7573 150.668 80.5743 151.361 82.1049 152.107C83.621 152.857 85.9167 153.589 88.5132 153.543C91.1085 153.497 93.3767 152.684 94.8653 151.882C96.3686 151.081 97.1616 150.36 97.1996 150.41Z" fill="#263238"/>
<path d="M72.9758 113.217C72.9869 113.216 73.0009 113.34 73.019 113.577C73.0354 113.848 73.0558 114.192 73.0815 114.614C73.1253 115.556 73.1855 116.848 73.2591 118.426C73.3951 121.684 73.5808 126.113 73.7858 131.007C74.0077 135.901 74.2081 140.329 74.3558 143.586C74.4364 145.164 74.5018 146.456 74.5497 147.398C74.5678 147.82 74.5824 148.163 74.5941 148.435C74.6005 148.672 74.5988 148.797 74.5882 148.798C74.5771 148.799 74.5579 148.675 74.531 148.439C74.5041 148.169 74.4697 147.827 74.4276 147.406C74.3412 146.509 74.2454 145.208 74.1333 143.6C73.9143 140.383 73.6784 135.936 73.471 131.02C73.2631 126.107 73.1195 121.657 73.0371 118.435C73.005 116.855 72.9793 115.561 72.96 114.618C72.9589 114.195 72.9577 113.851 72.9565 113.58C72.9577 113.342 72.9647 113.217 72.9758 113.217Z" fill="#263238"/>
<path d="M70.6639 115.18C70.6732 115.185 70.6294 115.285 70.5366 115.468C70.4238 115.683 70.286 115.947 70.1178 116.267C69.7452 116.955 69.191 117.943 68.4803 119.148C67.0787 121.571 64.971 124.815 62.8412 128.503C61.7771 130.346 60.8743 132.17 60.0923 133.836C59.3168 135.5 58.9167 137.133 59.0189 138.515C59.0972 139.897 59.5071 140.97 59.8739 141.647C60.2395 142.332 60.542 142.65 60.5157 142.671C60.5075 142.678 60.431 142.601 60.292 142.447C60.1577 142.289 59.9685 142.048 59.767 141.708C59.36 141.037 58.9056 139.949 58.7958 138.53C58.6603 137.109 59.0551 135.406 59.8266 133.717C60.6004 132.03 61.4962 130.201 62.5673 128.347C64.7059 124.644 66.8404 121.424 68.2899 119.033C68.9983 117.87 69.5806 116.914 70.0121 116.206C70.2008 115.897 70.3555 115.644 70.4817 115.437C70.592 115.264 70.6545 115.175 70.6639 115.18Z" fill="#263238"/>
<path d="M138.58 125.36L130.036 119.772L124.644 129.113C124.644 129.113 117.168 118.722 113.772 112.634C110.646 107.03 106.603 105.521 104.652 105.115C104.075 104.995 103.552 105.475 103.616 106.06L106.563 126.265C106.934 127.317 113.101 136.258 116.548 140.756C122.299 148.265 130.774 143.46 133.101 138.204C134.948 134.034 137.823 127.697 138.58 125.36Z" fill="#E8505B"/>
<path d="M127.1 137.544C127.056 137.546 127.004 137.034 126.937 136.211C126.866 135.389 126.782 134.251 126.525 133.029C126.268 131.807 125.841 130.754 125.434 130.047C125.032 129.336 124.691 128.951 124.73 128.916C124.754 128.891 125.16 129.227 125.625 129.931C126.094 130.628 126.571 131.709 126.834 132.963C127.098 134.216 127.147 135.371 127.161 136.2C127.17 137.03 127.143 137.543 127.1 137.544Z" fill="#263238"/>
<path d="M129.601 133.369C129.551 133.373 129.51 132.936 129.297 132.275C129.085 131.62 128.662 130.74 127.931 129.984C127.211 129.22 126.336 128.755 125.659 128.742C124.977 128.707 124.598 128.98 124.576 128.933C124.544 128.915 124.902 128.544 125.661 128.519C126.42 128.473 127.405 128.961 128.159 129.766C128.934 130.567 129.348 131.518 129.512 132.215C129.678 132.92 129.637 133.369 129.601 133.369Z" fill="#263238"/>
<path d="M104.095 107.611C104.102 107.619 104.031 107.701 103.89 107.848C103.811 107.928 103.725 108.017 103.627 108.117C103.528 108.236 103.419 108.367 103.3 108.511C102.826 109.111 102.203 110.06 101.821 111.383C101.414 112.691 101.253 114.355 101.497 116.153C101.622 117.051 101.842 117.984 102.231 118.885C102.609 119.798 103.109 120.703 103.612 121.629C105.704 125.301 107.857 128.479 109.414 130.772C110.185 131.881 110.82 132.793 111.29 133.469C111.736 134.103 111.988 134.451 111.968 134.466C111.96 134.472 111.886 134.394 111.753 134.238C111.621 134.082 111.428 133.85 111.191 133.542C110.71 132.932 110.039 132.03 109.231 130.9C107.623 128.635 105.439 125.475 103.336 121.783C102.829 120.849 102.328 119.94 101.945 119.005C101.547 118.07 101.327 117.11 101.208 116.191C100.974 114.349 101.163 112.647 101.607 111.316C102.026 109.97 102.694 109.016 103.205 108.431C103.335 108.292 103.452 108.165 103.559 108.05C103.665 107.958 103.76 107.875 103.846 107.8C104.003 107.668 104.088 107.603 104.095 107.611Z" fill="#263238"/>
<path d="M104.117 161.296C104.121 161.306 104.031 161.345 103.857 161.408C103.646 161.481 103.393 161.569 103.089 161.674C102.756 161.789 102.345 161.922 101.861 162.051C101.377 162.183 100.83 162.35 100.213 162.482C98.9873 162.784 97.5069 163.06 95.8519 163.283C94.1945 163.487 92.3607 163.628 90.4323 163.64C88.5034 163.639 86.6684 163.508 85.0093 163.313C83.3525 163.1 81.8709 162.833 80.6433 162.537C80.0254 162.408 79.4777 162.244 78.9935 162.115C78.5082 161.989 78.0971 161.859 77.7624 161.745C77.4582 161.642 77.2047 161.556 76.9933 161.484C76.8187 161.421 76.7288 161.383 76.7323 161.373C76.7358 161.362 76.8321 161.38 77.0126 161.423C77.2275 161.48 77.4868 161.547 77.7969 161.627C78.1356 161.722 78.5503 161.835 79.0379 161.944C79.5244 162.057 80.0733 162.204 80.6912 162.319C81.9188 162.584 83.3957 162.827 85.0432 163.024C86.693 163.201 88.5151 163.322 90.4306 163.324C92.3455 163.312 94.1664 163.181 95.8151 162.993C97.4614 162.788 98.9365 162.537 100.163 162.264C100.78 162.146 101.328 161.995 101.814 161.88C102.301 161.767 102.715 161.652 103.053 161.555C103.363 161.473 103.622 161.404 103.837 161.347C104.017 161.304 104.114 161.285 104.117 161.296Z" fill="#263238"/>
<g opacity="0.3">
<path d="M72.3091 139.525L73.977 136.937L73.1068 116.558L72.3091 139.525Z" fill="black"/>
</g>
<g opacity="0.3">
<path d="M101.107 115.179C101.107 115.179 101.161 122.606 102.878 125.548C104.594 128.489 108.61 134.847 108.596 134.467C108.583 134.088 108.367 129.226 108.367 129.226C108.367 129.226 101.142 119.336 101.107 115.179Z" fill="black"/>
</g>
<path d="M70.8339 140.144C70.8386 140.155 70.6587 140.248 70.3007 140.298C69.9457 140.35 69.4066 140.325 68.7969 140.104C68.1884 139.884 67.5232 139.464 66.9293 138.852C66.3336 138.237 65.8419 137.442 65.3718 136.601C64.9028 135.76 64.4788 134.952 63.9953 134.291C63.5135 133.629 62.9803 133.109 62.4722 132.761C61.4444 132.049 60.6075 132.095 60.6233 132.032C60.6227 132.019 60.8212 131.987 61.1775 132.036C61.5326 132.083 62.0418 132.24 62.5902 132.581C63.1374 132.922 63.7091 133.448 64.2201 134.124C64.7335 134.801 65.1703 135.616 65.6369 136.452C66.1029 137.286 66.5771 138.065 67.1319 138.659C67.6867 139.253 68.3075 139.671 68.874 139.904C70.0315 140.387 70.8357 140.077 70.8339 140.144Z" fill="white"/>
<path d="M73.0934 127.346C73.0414 127.361 72.9147 126.906 72.5578 126.249C72.2057 125.592 71.5767 124.755 70.6709 124.067C69.7611 123.383 68.7846 123.007 68.0564 122.848C67.3275 122.684 66.8545 122.687 66.8545 122.633C66.8516 122.603 67.3293 122.523 68.0973 122.637C68.8611 122.746 69.9024 123.108 70.8543 123.824C71.8027 124.544 72.4358 125.447 72.75 126.152C73.0694 126.859 73.1226 127.342 73.0934 127.346Z" fill="white"/>
<path d="M101.243 116.409C101.236 116.439 100.842 116.333 100.116 116.274C99.392 116.216 98.3285 116.241 97.0642 116.552C95.7986 116.853 94.3497 117.429 92.829 118.245C91.2989 119.045 89.6795 120.061 87.8457 120.9C86.0166 121.755 84.1034 122.189 82.3602 122.296C80.6111 122.394 79.0337 122.19 77.7548 121.867C76.4717 121.551 75.4848 121.125 74.8301 120.792C74.4972 120.635 74.2555 120.48 74.0884 120.383C73.9226 120.283 73.8385 120.226 73.8437 120.217C73.8578 120.191 74.2128 120.389 74.8809 120.684C75.5461 120.982 76.5336 121.373 77.805 121.658C79.0729 121.949 80.6263 122.127 82.3427 122.016C84.0561 121.894 85.9185 121.465 87.7207 120.622C89.5288 119.796 91.1517 118.789 92.6999 117.996C94.2399 117.187 95.7233 116.62 97.0169 116.341C98.3104 116.051 99.3978 116.06 100.129 116.155C100.495 116.203 100.777 116.259 100.963 116.315C101.149 116.367 101.246 116.399 101.243 116.409Z" fill="white"/>
<path d="M108.421 136.615C108.424 136.624 108.308 136.663 108.084 136.727C107.859 136.782 107.532 136.901 107.095 136.973C106.231 137.164 104.946 137.308 103.361 137.27C101.774 137.238 99.8977 136.963 97.8589 136.496C95.819 136.029 93.6203 135.36 91.3135 134.682C89.0078 134.009 86.777 133.484 84.7178 133.216C82.6598 132.959 80.7769 132.939 79.227 133.173C77.6765 133.398 76.4571 133.791 75.6588 134.155C74.8563 134.509 74.4335 134.756 74.4172 134.728C74.4119 134.719 74.5135 134.652 74.7139 134.533C74.9188 134.425 75.2009 134.219 75.6097 134.047C76.4004 133.647 77.6268 133.216 79.1949 132.96C80.7635 132.696 82.6714 132.693 84.7522 132.938C86.8342 133.192 89.0832 133.714 91.3987 134.39C93.709 135.069 95.899 135.744 97.9226 136.223C99.9456 136.702 101.8 136.996 103.368 137.055C104.936 137.12 106.209 137.01 107.074 136.857C107.94 136.709 108.414 136.585 108.421 136.615Z" fill="white"/>
<path d="M108.626 148.168C108.598 148.265 106.895 147.165 103.767 146.858C102.216 146.689 100.348 146.781 98.3006 147.048C96.2513 147.326 94.021 147.796 91.6657 148.238C89.3116 148.678 87.0551 149.065 84.9795 149.246C82.9057 149.433 81.0171 149.419 79.4525 149.21C77.8874 149.006 76.6488 148.662 75.8288 148.341C75.4113 148.201 75.1093 148.034 74.8962 147.945C74.6865 147.847 74.5785 147.791 74.5832 147.782C74.5948 147.754 75.041 147.949 75.8685 148.23C76.6943 148.514 77.9271 148.823 79.4782 148.997C81.0293 149.176 82.897 149.168 84.9544 148.967C87.0136 148.772 89.2579 148.379 91.6108 147.939C93.9603 147.497 96.1993 147.035 98.2649 146.77C100.33 146.516 102.222 146.446 103.791 146.645C105.361 146.833 106.598 147.202 107.405 147.556C107.819 147.708 108.112 147.893 108.321 147.99C108.525 148.098 108.63 148.158 108.626 148.168Z" fill="white"/>
<path d="M89.6433 163.058C89.6304 163.074 89.4231 162.942 89.0605 162.69C88.6996 162.436 88.1722 162.075 87.514 161.64C86.1994 160.768 84.3341 159.638 82.1722 158.584C80.0079 157.533 77.9668 156.764 76.4694 156.267C75.7213 156.019 75.1116 155.826 74.6882 155.7C74.266 155.57 74.0341 155.488 74.0394 155.468C74.0447 155.447 74.2858 155.49 74.7186 155.585C75.1525 155.677 75.7733 155.838 76.5337 156.062C78.055 156.508 80.1241 157.252 82.3047 158.311C84.4825 159.372 86.3454 160.541 87.6349 161.463C88.2808 161.923 88.7906 162.312 89.1311 162.596C89.4733 162.878 89.6561 163.041 89.6433 163.058Z" fill="white"/>
<path d="M107.621 162.859C107.636 162.888 107.195 163.181 106.394 163.475C105.596 163.77 104.423 164.023 103.116 163.984C101.809 163.942 100.654 163.617 99.8762 163.274C99.0948 162.931 98.672 162.61 98.6895 162.583C98.7152 162.538 99.1725 162.79 99.955 163.073C100.735 163.358 101.859 163.639 103.126 163.681C104.392 163.717 105.53 163.507 106.327 163.271C107.126 163.036 107.598 162.813 107.621 162.859Z" fill="white"/>
<path d="M120.401 124.306C120.415 124.307 120.422 124.497 120.333 124.824C120.246 125.151 120.037 125.608 119.65 126.079C119.264 126.549 118.702 127.018 118.009 127.414C117.314 127.811 116.5 128.122 115.667 128.463C114.835 128.804 114.056 129.164 113.447 129.625C112.837 130.085 112.391 130.63 112.126 131.141C111.577 132.184 111.818 132.962 111.752 132.956C111.74 132.96 111.663 132.785 111.639 132.445C111.613 132.108 111.676 131.602 111.933 131.046C112.189 130.491 112.643 129.901 113.276 129.403C113.913 128.903 114.712 128.527 115.552 128.182C116.392 127.839 117.197 127.539 117.873 127.169C118.549 126.8 119.1 126.368 119.488 125.938C120.281 125.069 120.342 124.283 120.401 124.306Z" fill="white"/>
<path d="M113.226 111.911C113.246 111.916 113.21 112.103 113.127 112.44C113.089 112.61 113.033 112.815 112.947 113.046C112.862 113.278 112.781 113.548 112.646 113.829C112.407 114.403 112.051 115.056 111.594 115.742C111.124 116.418 110.546 117.121 109.857 117.777C109.159 118.425 108.422 118.96 107.719 119.387C107.006 119.801 106.332 120.117 105.745 120.32C105.457 120.437 105.182 120.503 104.946 120.572C104.71 120.644 104.502 120.687 104.33 120.715C103.989 120.777 103.799 120.802 103.795 120.781C103.783 120.724 104.535 120.579 105.667 120.119C106.235 119.895 106.885 119.565 107.573 119.148C108.254 118.716 108.967 118.188 109.648 117.556C110.322 116.914 110.892 116.235 111.364 115.582C111.823 114.921 112.191 114.292 112.45 113.739C112.979 112.637 113.17 111.895 113.226 111.911Z" fill="white"/>
<path d="M101.984 104.249C101.992 104.268 101.691 104.403 101.137 104.63C100.586 104.863 99.7697 105.155 98.7483 105.474C97.7281 105.798 96.4912 106.115 95.1036 106.398C93.7131 106.667 92.1701 106.893 90.5396 107.019C88.9079 107.132 87.348 107.134 85.933 107.072C84.5186 106.993 83.249 106.86 82.1925 106.689C81.1355 106.523 80.2857 106.353 79.7064 106.203C79.1259 106.059 78.8076 105.97 78.8123 105.949C78.817 105.929 79.144 105.979 79.7303 106.087C80.3149 106.2 81.167 106.338 82.2223 106.476C83.277 106.619 84.5402 106.73 85.9453 106.791C87.351 106.838 88.898 106.828 90.5174 106.715C92.1351 106.591 93.6669 106.374 95.0504 106.123C96.431 105.857 97.6644 105.564 98.687 105.268C99.7102 104.977 100.534 104.717 101.095 104.518C101.66 104.327 101.977 104.229 101.984 104.249Z" fill="white"/>
<path d="M124.931 129.669C124.948 129.664 125.035 129.87 125.138 130.261C125.241 130.65 125.351 131.229 125.389 131.951C125.49 133.401 125.213 135.389 124.815 137.535C124.621 138.613 124.385 139.645 124.02 140.537C123.663 141.431 123.172 142.17 122.664 142.692C122.159 143.223 121.645 143.536 121.275 143.702C120.903 143.868 120.68 143.906 120.675 143.891C120.642 143.835 121.559 143.611 122.505 142.546C122.976 142.023 123.427 141.305 123.759 140.433C124.098 139.563 124.322 138.552 124.515 137.48C124.914 135.333 125.219 133.382 125.174 131.959C125.153 130.536 124.873 129.683 124.931 129.669Z" fill="white"/>
<path d="M136.639 131.166C136.588 131.189 136.314 130.57 135.701 129.681C135.093 128.791 134.095 127.662 132.748 126.716C131.396 125.777 129.992 125.228 128.947 124.964C127.901 124.695 127.225 124.65 127.23 124.595C127.231 124.574 127.401 124.57 127.707 124.582C128.014 124.588 128.458 124.644 128.996 124.754C129.537 124.86 130.167 125.053 130.843 125.326C131.514 125.613 132.227 125.988 132.922 126.467C133.61 126.954 134.208 127.495 134.708 128.026C135.198 128.566 135.595 129.091 135.881 129.563C136.17 130.031 136.375 130.428 136.486 130.714C136.603 130.997 136.658 131.157 136.639 131.166Z" fill="white"/>
<g opacity="0.3">
<path d="M102.321 161.756C102.932 161.481 103.113 160.648 102.73 160.167C102.348 159.685 101.663 159.578 101.048 159.59C98.0313 159.65 95.398 161.669 92.4301 162.211C90.1724 162.624 87.8457 162.158 85.6493 161.492C83.4529 160.825 81.3102 159.956 79.0548 159.53C78.5835 159.441 78.0918 159.372 77.6286 159.497C77.1655 159.622 76.7363 159.988 76.6779 160.465C76.6195 160.94 76.7316 161.293 77.4418 161.536C77.4418 161.536 84.9105 163.612 90.3184 163.532C96.0556 163.446 102.321 161.756 102.321 161.756Z" fill="black"/>
</g>
<path d="M257.949 247.482H217.209V253.08H257.949V247.482Z" fill="#263238"/>
<path d="M258.019 253.149H217.139V247.412H258.019V253.149ZM217.278 253.01H257.879V247.552H217.278V253.01Z" fill="#263238"/>
<path d="M220.986 251.217L226.851 280.147H248.548L254.217 253.08L220.986 251.217Z" fill="#263238"/>
<path d="M220.986 277.411L224.114 281.711H250.487L254.217 277.411H220.986Z" fill="#455A64"/>
<path d="M236.049 252.061C235.969 252.061 235.866 238.659 235.82 222.13C235.773 205.594 235.8 192.194 235.88 192.194C235.96 192.194 236.063 205.594 236.11 222.129C236.157 238.659 236.129 252.061 236.049 252.061Z" fill="#263238"/>
<path d="M245.124 218.522C245.133 218.526 245.095 218.633 245.015 218.834C244.92 219.061 244.799 219.348 244.651 219.701C244.57 219.892 244.481 220.1 244.385 220.325C244.301 220.561 244.211 220.815 244.114 221.086C244.015 221.36 243.911 221.651 243.8 221.959C243.691 222.268 243.605 222.606 243.498 222.954C243.053 224.342 242.699 226.046 242.359 227.942C242.062 229.847 241.84 231.956 241.728 234.179C241.53 238.631 241.781 242.667 242.05 245.574C242.181 247.028 242.313 248.204 242.41 249.015C242.452 249.396 242.486 249.706 242.512 249.951C242.533 250.166 242.539 250.279 242.529 250.281C242.519 250.283 242.494 250.172 242.455 249.96C242.414 249.716 242.362 249.408 242.298 249.03C242.166 248.223 242.003 247.05 241.845 245.594C241.524 242.686 241.239 238.638 241.438 234.166C241.55 231.932 241.782 229.812 242.095 227.898C242.452 225.993 242.829 224.283 243.302 222.894C243.416 222.545 243.509 222.208 243.625 221.899C243.743 221.592 243.856 221.302 243.962 221.029C244.067 220.76 244.166 220.508 244.257 220.273C244.357 220.045 244.46 219.841 244.547 219.656C244.716 219.311 244.853 219.03 244.962 218.808C245.06 218.616 245.115 218.517 245.124 218.522Z" fill="#263238"/>
<path d="M244.083 207.682C244.092 207.686 244.047 207.838 243.953 208.124C243.848 208.434 243.707 208.849 243.529 209.37C243.435 209.643 243.331 209.943 243.218 210.269C243.117 210.603 243.007 210.964 242.89 211.351C242.652 212.126 242.376 213.008 242.131 213.999C242 214.493 241.864 215.011 241.722 215.549C241.599 216.093 241.472 216.658 241.34 217.243C241.055 218.41 240.85 219.677 240.587 221.001C240.138 223.663 239.743 226.605 239.47 229.709C239.212 232.816 239.1 235.784 239.061 238.485C239.053 241.185 239.087 243.619 239.198 245.658C239.235 246.68 239.3 247.601 239.352 248.411C239.399 249.222 239.45 249.919 239.502 250.488C239.544 251.037 239.577 251.474 239.602 251.801C239.622 252.102 239.627 252.26 239.617 252.261C239.607 252.262 239.582 252.106 239.544 251.807C239.505 251.482 239.454 251.046 239.39 250.499C239.321 249.931 239.253 249.234 239.191 248.424C239.123 247.614 239.044 246.692 238.994 245.67C238.857 243.627 238.801 241.19 238.794 238.483C238.819 235.776 238.923 232.8 239.181 229.685C239.455 226.572 239.859 223.621 240.324 220.954C240.595 219.628 240.81 218.358 241.106 217.19C241.243 216.604 241.377 216.039 241.505 215.494C241.654 214.956 241.797 214.439 241.933 213.945C242.192 212.954 242.483 212.074 242.736 211.301C242.862 210.916 242.979 210.557 243.088 210.224C243.21 209.9 243.322 209.602 243.424 209.332C243.623 208.818 243.782 208.409 243.9 208.103C244.01 207.823 244.074 207.678 244.083 207.682Z" fill="#263238"/>
<path d="M233.472 254.432C233.467 254.432 233.459 254.38 233.449 254.276C233.439 254.156 233.427 254.004 233.411 253.815C233.382 253.388 233.342 252.794 233.291 252.04C233.193 250.476 233.054 248.251 232.882 245.511C232.528 240 232.017 232.386 231.09 224.013C230.616 219.826 230.067 215.851 229.495 212.246C229.191 210.447 228.916 208.734 228.603 207.142C228.317 205.544 228.008 204.065 227.724 202.714C227.456 201.36 227.157 200.147 226.917 199.077C226.681 198.006 226.453 197.09 226.262 196.342C226.082 195.608 225.941 195.03 225.839 194.615C225.797 194.43 225.763 194.282 225.736 194.164C225.714 194.061 225.706 194.008 225.71 194.007C225.715 194.006 225.734 194.056 225.765 194.155C225.798 194.271 225.842 194.418 225.895 194.599C226.01 195.012 226.169 195.585 226.371 196.313C226.579 197.057 226.824 197.971 227.075 199.039C227.33 200.107 227.643 201.318 227.924 202.671C228.221 204.02 228.543 205.5 228.839 207.097C229.163 208.69 229.447 210.402 229.758 212.203C230.345 215.81 230.903 219.79 231.378 223.981C232.306 232.363 232.785 239.984 233.087 245.5C233.236 248.258 233.341 250.49 233.403 252.034C233.431 252.789 233.453 253.384 233.469 253.812C233.473 254.001 233.476 254.154 233.479 254.274C233.48 254.379 233.477 254.432 233.472 254.432Z" fill="#263238"/>
<path d="M235.717 198.638C235.54 196.739 233.621 195.307 231.714 195.287C229.808 195.267 228.03 196.41 226.864 197.919C225.697 199.428 225.054 201.27 224.528 203.103C223.244 207.576 222.542 212.276 223.091 216.898C223.64 221.519 225.515 226.069 228.831 229.334C229.37 229.865 230.069 230.396 230.809 230.239C231.213 230.152 231.545 229.871 231.852 229.594C238.366 223.709 242.128 214.894 241.87 206.119C241.819 204.361 241.588 202.532 240.615 201.068C239.642 199.604 237.374 198.05 235.717 198.638Z" fill="#E8505B"/>
<path d="M221.478 183.429C220.583 185.05 219.687 186.672 218.792 188.293C218.73 188.407 218.647 188.534 218.518 188.544C218.376 188.556 218.271 188.423 218.194 188.304C215.827 184.671 213.46 181.039 211.093 177.406L212.729 176.48L221.478 183.429Z" fill="#E8505B"/>
<g opacity="0.2">
<path d="M221.478 183.429C220.583 185.05 219.687 186.672 218.792 188.293C218.73 188.407 218.647 188.534 218.518 188.544C218.376 188.556 218.271 188.423 218.194 188.304C215.827 184.671 213.46 181.039 211.093 177.406L212.729 176.48L221.478 183.429Z" fill="black"/>
</g>
<path d="M235.881 192.194C227.807 187.43 219.733 182.665 211.659 177.901C211.412 177.755 211.144 177.583 211.069 177.306C210.972 176.947 211.242 176.602 211.5 176.335C214.831 172.898 219.67 170.906 224.445 171.25C229.219 171.593 233.81 174.351 236.147 178.528C238.484 182.706 238.562 188.229 235.881 192.194Z" fill="#E8505B"/>
<path d="M215.15 173.339C215.15 173.329 215.259 173.315 215.468 173.299C215.677 173.289 215.985 173.251 216.383 173.255C217.179 173.236 218.336 173.288 219.744 173.522C221.15 173.753 222.803 174.206 224.53 174.976C226.256 175.743 228.041 176.852 229.667 178.31C231.28 179.783 232.563 181.45 233.497 183.09C234.436 184.732 235.051 186.331 235.421 187.708C235.794 189.085 235.962 190.232 236.021 191.025C236.065 191.421 236.058 191.731 236.069 191.94C236.073 192.149 236.071 192.26 236.061 192.26C236.035 192.261 236.005 191.822 235.909 191.037C235.815 190.251 235.618 189.12 235.224 187.764C234.458 185.067 232.68 181.43 229.472 178.525C226.263 175.624 222.467 174.217 219.707 173.724C218.319 173.467 217.173 173.384 216.382 173.369C215.591 173.351 215.152 173.365 215.15 173.339Z" fill="#263238"/>
<path d="M232.602 182.329C232.616 182.366 232.15 182.581 231.378 182.885C230.606 183.19 229.528 183.578 228.322 183.962C227.115 184.345 226.01 184.65 225.204 184.847C224.398 185.043 223.893 185.136 223.883 185.098C223.872 185.059 224.359 184.896 225.149 184.649C226.042 184.369 227.083 184.044 228.234 183.685C229.381 183.315 230.418 182.979 231.309 182.692C232.096 182.438 232.588 182.29 232.602 182.329Z" fill="#263238"/>
<path d="M228.788 172.084C228.867 172.077 229.038 173.284 229.075 174.786C229.114 176.288 229.004 177.503 228.926 177.499C228.844 177.496 228.824 176.285 228.785 174.794C228.748 173.302 228.707 172.091 228.788 172.084Z" fill="#263238"/>
<path d="M211.448 177.63C211.437 177.593 212.106 177.35 213.207 177.011C214.307 176.672 215.841 176.242 217.549 175.83C219.258 175.419 220.818 175.103 221.952 174.904C223.086 174.705 223.793 174.616 223.8 174.654C223.808 174.695 223.114 174.855 221.992 175.105C220.87 175.355 219.321 175.702 217.617 176.112C215.913 176.523 214.376 176.92 213.264 177.208C212.15 177.496 211.46 177.67 211.448 177.63Z" fill="#263238"/>
<path d="M224.712 194.143C222.629 192.563 220.426 192.252 217.814 192.356C215.202 192.46 212.659 193.256 210.264 194.304C206.179 196.093 202.34 198.73 199.9 202.462C197.46 206.193 196.611 211.134 198.438 215.201C198.62 215.606 198.857 216.03 199.265 216.205C199.695 216.389 200.187 216.245 200.632 216.1C205.277 214.585 209.956 213.055 214.227 210.682C218.498 208.309 222.386 205.01 224.678 200.695C225.228 199.659 225.689 198.549 225.778 197.38C225.868 196.211 225.545 194.969 224.712 194.143Z" fill="#E8505B"/>
<path d="M224.754 193.653C224.756 193.663 224.641 193.709 224.419 193.789C224.168 193.876 223.845 193.987 223.445 194.124C223.23 194.196 222.995 194.274 222.74 194.359C222.485 194.45 222.213 194.565 221.917 194.679C221.33 194.917 220.647 195.155 219.929 195.503C219.565 195.669 219.185 195.842 218.79 196.022C218.395 196.204 218 196.428 217.583 196.641C216.741 197.054 215.89 197.583 214.982 198.119C213.201 199.244 211.316 200.6 209.482 202.198C207.663 203.814 206.078 205.511 204.735 207.135C204.088 207.967 203.455 208.744 202.938 209.527C202.674 209.914 202.401 210.277 202.17 210.645C201.941 211.014 201.721 211.369 201.51 211.709C201.072 212.377 200.75 213.023 200.439 213.576C200.288 213.854 200.14 214.11 200.016 214.352C199.9 214.594 199.792 214.817 199.694 215.021C199.507 215.4 199.355 215.706 199.237 215.944C199.13 216.154 199.069 216.262 199.06 216.258C199.051 216.254 199.093 216.138 199.184 215.921C199.289 215.676 199.424 215.362 199.591 214.973C199.682 214.765 199.783 214.538 199.892 214.291C200.009 214.045 200.151 213.785 200.295 213.502C200.593 212.94 200.905 212.283 201.333 211.604C201.54 211.26 201.756 210.899 201.98 210.524C202.208 210.151 202.477 209.783 202.738 209.39C203.251 208.597 203.88 207.809 204.526 206.967C205.866 205.324 207.457 203.609 209.289 201.981C211.137 200.371 213.04 199.013 214.841 197.892C215.758 197.359 216.62 196.835 217.472 196.428C217.894 196.219 218.293 195.998 218.693 195.82C219.093 195.645 219.478 195.476 219.846 195.315C220.573 194.977 221.264 194.752 221.86 194.527C222.159 194.419 222.436 194.312 222.694 194.228C222.953 194.151 223.191 194.081 223.41 194.016C223.817 193.9 224.146 193.806 224.401 193.733C224.63 193.671 224.751 193.644 224.754 193.653Z" fill="#263238"/>
<path d="M208.479 202.465C208.501 202.542 206.232 203.273 203.411 204.098C200.589 204.923 198.285 205.529 198.262 205.452C198.239 205.375 200.508 204.645 203.33 203.82C206.151 202.995 208.456 202.389 208.479 202.465Z" fill="#263238"/>
<path d="M208.271 213.648C208.232 213.648 208.186 213.045 208.159 212.069C208.132 211.093 208.128 209.743 208.17 208.254C208.212 206.764 208.291 205.417 208.372 204.444C208.453 203.47 208.533 202.871 208.571 202.874C208.612 202.877 208.605 203.481 208.577 204.455C208.544 205.525 208.504 206.825 208.459 208.262C208.423 209.699 208.391 210.999 208.364 212.069C208.338 213.044 208.312 213.647 208.271 213.648Z" fill="#263238"/>
<path d="M217.849 208.768C217.769 208.773 217.515 206.031 217.281 202.645C217.046 199.256 216.921 196.506 217.001 196.5C217.081 196.495 217.336 199.236 217.57 202.624C217.804 206.011 217.929 208.762 217.849 208.768Z" fill="#263238"/>
<path d="M205.926 196.234C205.928 196.194 206.549 196.178 207.55 196.185C208.552 196.192 209.934 196.221 211.46 196.271C212.987 196.322 214.368 196.384 215.368 196.443C216.368 196.503 216.986 196.559 216.986 196.599C216.985 196.639 216.366 196.655 215.364 196.648C214.362 196.641 212.979 196.612 211.451 196.561C209.923 196.51 208.541 196.448 207.541 196.389C206.541 196.331 205.924 196.274 205.926 196.234Z" fill="#263238"/>
<path d="M229.87 230.639C229.86 230.639 229.848 230.525 229.836 230.308C229.825 230.059 229.81 229.744 229.793 229.357C229.756 228.53 229.748 227.333 229.78 225.853C229.806 224.374 229.905 222.613 230.079 220.664C230.267 218.716 230.54 216.58 230.931 214.355C231.333 212.132 231.814 210.033 232.309 208.139C232.819 206.249 233.335 204.563 233.821 203.165C234.303 201.766 234.724 200.645 235.043 199.882C235.193 199.524 235.315 199.233 235.412 199.003C235.499 198.804 235.549 198.701 235.558 198.705C235.568 198.708 235.535 198.819 235.466 199.025C235.383 199.26 235.278 199.557 235.148 199.922C234.862 200.696 234.47 201.826 234.015 203.229C233.555 204.631 233.061 206.318 232.568 208.206C232.088 210.097 231.616 212.19 231.216 214.406C230.827 216.623 230.546 218.749 230.344 220.689C230.156 222.63 230.037 224.384 229.985 225.859C229.927 227.334 229.905 228.529 229.906 229.354C229.902 229.742 229.898 230.057 229.895 230.306C229.888 230.524 229.881 230.639 229.87 230.639Z" fill="#263238"/>
<path d="M231.148 214.113C231.175 214.141 230.808 214.549 230.182 215.174C229.555 215.799 228.666 216.637 227.65 217.528C226.635 218.418 225.686 219.19 224.985 219.73C224.283 220.27 223.831 220.58 223.807 220.549C223.781 220.517 224.188 220.15 224.855 219.571C225.599 218.925 226.482 218.158 227.459 217.31C228.427 216.453 229.303 215.678 230.041 215.025C230.703 214.438 231.119 214.083 231.148 214.113Z" fill="#263238"/>
<path d="M238.814 220.289C238.779 220.311 238.395 219.76 237.785 218.863C237.123 217.897 236.301 216.697 235.392 215.37C234.464 214.056 233.624 212.868 232.949 211.911C232.32 211.028 231.937 210.477 231.97 210.451C232.001 210.427 232.441 210.935 233.113 211.788C233.784 212.641 234.683 213.844 235.63 215.204C236.577 216.565 237.391 217.825 237.958 218.751C238.525 219.678 238.848 220.268 238.814 220.289Z" fill="#263238"/>
<path d="M234.798 200.866C234.841 200.934 232.295 202.648 229.111 204.696C225.926 206.744 223.309 208.348 223.265 208.281C223.222 208.214 225.768 206.499 228.954 204.451C232.138 202.404 234.755 200.798 234.798 200.866Z" fill="#263238"/>
<path d="M241.979 208.617C241.923 208.674 240.199 207.081 238.127 205.058C236.055 203.034 234.422 201.347 234.478 201.29C234.534 201.233 236.258 202.826 238.33 204.85C240.401 206.873 242.035 208.559 241.979 208.617Z" fill="#263238"/>
<path d="M243.786 208.461L245.972 208.28C247.524 208.152 249.031 207.692 250.387 206.929C251.058 206.551 251.732 206.182 252.445 205.895C255.147 204.81 258.163 205.004 261.072 204.858C265.82 204.62 270.518 203.419 274.797 201.349C275.044 201.229 275.263 201.047 275.395 200.806C275.844 199.988 275.01 199.26 274.292 198.818C270.609 196.548 266.859 194.25 262.683 193.123C258.506 191.996 253.764 192.187 250.2 194.64C246.017 197.519 244.492 203.432 243.786 208.461Z" fill="#E8505B"/>
<path d="M275.444 200.537C275.44 200.546 275.312 200.487 275.073 200.365C274.811 200.227 274.467 200.047 274.037 199.822C273.139 199.35 271.845 198.652 270.21 197.868C268.574 197.092 266.592 196.217 264.285 195.585C261.988 194.946 259.339 194.612 256.606 194.963C253.885 195.321 251.38 196.38 249.606 197.968C247.822 199.552 246.731 201.464 245.962 203.088C245.194 204.727 244.72 206.121 244.375 207.075C244.214 207.532 244.085 207.898 243.987 208.177C243.895 208.429 243.843 208.559 243.834 208.556C243.824 208.553 243.858 208.417 243.931 208.159C244.016 207.876 244.128 207.503 244.269 207.039C244.581 206.072 245.025 204.665 245.775 203.002C246.528 201.354 247.613 199.401 249.429 197.768C251.236 196.129 253.8 195.038 256.569 194.675C259.347 194.318 262.04 194.668 264.356 195.327C266.683 195.98 268.669 196.882 270.299 197.683C271.929 198.494 273.209 199.22 274.091 199.723C274.51 199.968 274.846 200.164 275.101 200.314C275.331 200.452 275.45 200.529 275.444 200.537Z" fill="#263238"/>
<path d="M270.194 203.358C270.149 203.425 267.29 201.575 263.808 199.228C260.325 196.879 257.539 194.922 257.584 194.856C257.629 194.789 260.487 196.639 263.97 198.987C267.452 201.335 270.239 203.292 270.194 203.358Z" fill="#263238"/>
<path d="M267.448 194.582C267.463 194.658 266.471 194.916 265.216 195.03C263.961 195.147 262.938 195.075 262.94 194.997C262.94 194.914 263.95 194.856 265.189 194.741C266.428 194.629 267.432 194.501 267.448 194.582Z" fill="#263238"/>
<path d="M254.627 192.285C254.696 192.326 254.276 193.166 253.689 194.161C253.102 195.156 252.57 195.93 252.501 195.889C252.432 195.849 252.852 195.009 253.439 194.014C254.026 193.018 254.558 192.244 254.627 192.285Z" fill="#263238"/>
<path d="M257.189 205.042C257.169 205.075 256.639 204.798 255.813 204.297C254.987 203.796 253.871 203.061 252.678 202.195C251.486 201.328 250.434 200.509 249.678 199.91C248.923 199.31 248.467 198.924 248.491 198.892C248.515 198.86 249.015 199.188 249.801 199.746C250.659 200.369 251.699 201.125 252.849 201.96C254.038 202.823 255.13 203.581 255.925 204.124C256.719 204.668 257.211 205.007 257.189 205.042Z" fill="#263238"/>
<path d="M247.005 217.75C244.919 217.199 242.434 219.227 242.004 221.341C241.574 223.454 242.367 225.616 243.295 227.563C245.349 231.873 248.184 235.87 251.918 238.845C255.652 241.821 260.329 243.724 265.103 243.7C264.222 239.605 265.336 235.327 264.845 231.168C264.415 227.537 262.723 224.068 260.125 221.496C257.527 218.924 254.041 217.266 250.406 216.873C249.076 216.729 247.536 216.52 247.005 217.75Z" fill="#E8505B"/>
<path d="M265.103 243.7C265.099 243.708 264.997 243.661 264.807 243.562C264.619 243.459 264.347 243.294 264.026 243.038C263.372 242.541 262.622 241.583 261.967 240.284C261.635 239.639 261.263 238.938 260.9 238.162C260.548 237.384 260.173 236.554 259.778 235.683C259.381 234.814 258.943 233.912 258.4 233.032C257.859 232.151 257.215 231.289 256.502 230.452C255.074 228.774 253.542 227.324 252.215 225.938C250.88 224.557 249.758 223.228 248.946 222.016C248.126 220.809 247.63 219.727 247.349 218.965C247.214 218.58 247.117 218.28 247.07 218.07C247.017 217.863 246.995 217.753 247.004 217.75C247.031 217.743 247.149 218.176 247.454 218.923C247.766 219.667 248.283 220.72 249.115 221.9C249.939 223.083 251.067 224.387 252.407 225.752C253.74 227.123 255.281 228.57 256.724 230.264C257.444 231.11 258.095 231.985 258.642 232.884C259.192 233.782 259.628 234.697 260.021 235.573C260.407 236.448 260.774 237.28 261.118 238.062C261.468 238.835 261.83 239.543 262.149 240.192C262.777 241.494 263.479 242.437 264.099 242.953C264.708 243.477 265.12 243.672 265.103 243.7Z" fill="#263238"/>
<path d="M254.32 240.297C254.282 240.289 254.348 239.752 254.511 238.893C254.675 238.034 254.942 236.855 255.304 235.571C255.666 234.286 256.053 233.141 256.362 232.323C256.671 231.505 256.895 231.013 256.931 231.026C256.971 231.041 256.814 231.558 256.556 232.39C256.298 233.222 255.944 234.371 255.583 235.65C255.223 236.928 254.925 238.093 254.712 238.938C254.497 239.782 254.361 240.305 254.32 240.297Z" fill="#263238"/>
<path d="M264.708 230.246C264.695 230.286 264.137 230.143 263.239 229.909C262.34 229.674 261.1 229.353 259.719 229.041C258.338 228.731 257.08 228.489 256.168 228.316C255.255 228.143 254.69 228.033 254.696 227.991C254.701 227.953 255.276 227.992 256.2 228.113C257.124 228.235 258.395 228.446 259.784 228.758C261.171 229.071 262.411 229.425 263.297 229.711C264.183 229.998 264.72 230.209 264.708 230.246Z" fill="#263238"/>
<path d="M246.582 233.166C246.544 233.158 246.624 232.537 246.807 231.541C246.991 230.546 247.283 229.177 247.672 227.682C248.063 226.187 248.477 224.85 248.804 223.892C249.131 222.934 249.364 222.353 249.401 222.365C249.44 222.378 249.276 222.982 249 223.953C248.724 224.925 248.342 226.266 247.954 227.756C247.565 229.246 247.243 230.602 247.009 231.584C246.774 232.567 246.622 233.174 246.582 233.166Z" fill="#263238"/>
<path d="M259.924 221.487C259.916 221.567 257.312 221.356 254.11 221.017C250.907 220.677 248.318 220.337 248.326 220.257C248.334 220.178 250.937 220.388 254.14 220.728C257.343 221.067 259.933 221.407 259.924 221.487Z" fill="#263238"/>
<path d="M258.016 253.057C258.016 253.137 248.866 253.202 237.58 253.202C226.291 253.202 217.141 253.137 217.141 253.057C217.141 252.976 226.29 252.911 237.58 252.911C248.866 252.911 258.016 252.976 258.016 253.057Z" fill="#455A64"/>
<path d="M251.65 264.832C251.65 264.912 245.484 264.978 237.881 264.978C230.274 264.978 224.11 264.913 224.11 264.832C224.11 264.752 230.274 264.688 237.881 264.688C245.484 264.688 251.65 264.752 251.65 264.832Z" fill="#455A64"/>
<path d="M251.891 266.516C251.891 266.596 245.725 266.661 238.121 266.661C230.515 266.661 224.351 266.596 224.351 266.516C224.351 266.436 230.515 266.371 238.121 266.371C245.725 266.371 251.891 266.436 251.891 266.516Z" fill="#455A64"/>
<path d="M251.891 263.445C251.891 263.525 245.513 263.59 237.648 263.59C229.78 263.59 223.404 263.525 223.404 263.445C223.404 263.365 229.78 263.299 237.648 263.299C245.513 263.299 251.891 263.365 251.891 263.445Z" fill="#455A64"/>
<path d="M269.359 281.711C269.359 281.795 214.125 281.862 146.006 281.862C77.863 281.862 22.6411 281.794 22.6411 281.711C22.6411 281.627 77.8636 281.559 146.006 281.559C214.125 281.559 269.359 281.627 269.359 281.711Z" fill="#263238"/>
</svg>
