<svg width="283" height="41" viewBox="0 0 283 41" fill="none" xmlns="http://www.w3.org/2000/svg">
<path d="M13.5483 20.7068C13.5483 21.8516 12.633 22.7796 11.5039 22.7796C10.3748 22.7796 9.45947 21.8516 9.45947 20.7068C9.45947 19.562 10.3748 18.6339 11.5039 18.6339C12.633 18.6339 13.5483 19.562 13.5483 20.7068Z" fill="black"/>
<path d="M16.9835 20.9553C16.9835 23.9776 14.5671 26.4276 11.5862 26.4276C8.60541 26.4276 6.18896 23.9776 6.18896 20.9553C6.18896 17.933 8.60541 15.4829 11.5862 15.4829C14.5671 15.4829 16.9835 17.933 16.9835 20.9553ZM8.05947 20.9553C8.05947 22.9301 9.63846 24.5311 11.5862 24.5311C13.534 24.5311 15.113 22.9301 15.113 20.9553C15.113 18.9804 13.534 17.3794 11.5862 17.3794C9.63846 17.3794 8.05947 18.9804 8.05947 20.9553Z" fill="black"/>
<path d="M17.9628 17.1413H5.20557L6.37332 15.3172H16.4619L17.9628 17.1413Z" fill="black"/>
<path d="M17.9645 24.438H5.1792L6.77013 26.2621H16.4829L17.9645 24.438Z" fill="black"/>
<path d="M20.4177 20.7062C20.4177 25.6975 16.4269 29.7438 11.504 29.7438C6.58113 29.7438 2.59033 25.6975 2.59033 20.7062C2.59033 15.7148 6.58113 11.6685 11.504 11.6685C16.4269 11.6685 20.4177 15.7148 20.4177 20.7062ZM4.37206 20.7062C4.37206 24.6998 7.56515 27.9373 11.504 27.9373C15.4429 27.9373 18.636 24.6998 18.636 20.7062C18.636 16.7125 15.4429 13.475 11.504 13.475C7.56515 13.475 4.37206 16.7125 4.37206 20.7062Z" fill="black"/>
<path d="M10.7686 15.3169L10.7632 13.3873L12.5677 12.9845V15.3169H10.7686Z" fill="black"/>
<path d="M9.37728 11.9177C10.882 11.4534 11.4217 10.287 11.5035 9.7619C11.6343 10.4915 12.8119 11.8348 13.7932 12.0006C11.6943 12.1664 7.87259 12.382 9.37728 11.9177Z" fill="black"/>
<path d="M2.91722 23.1115C2.45927 21.5859 1.30894 21.0386 0.791016 20.9557C1.51065 20.823 2.83544 19.6291 2.999 18.6341C3.16255 20.7622 3.37517 24.6371 2.91722 23.1115Z" fill="black"/>
<path d="M13.8756 29.3613C12.371 29.8256 11.8312 30.9919 11.7494 31.517C11.6186 30.7874 10.441 29.4442 9.45969 29.2783C11.5586 29.1125 15.3803 28.8969 13.8756 29.3613Z" fill="black"/>
<path d="M20.2034 18.4824C20.6613 20.0081 21.8117 20.5553 22.3296 20.6382C21.61 20.7709 20.2852 21.9648 20.1216 22.9598C19.9581 20.8317 19.7454 16.9568 20.2034 18.4824Z" fill="black"/>
<path d="M25.019 28.1701V12.9567H28.2035V19.2337H34.668V12.9567H37.8452V28.1701H34.668V21.8856H28.2035V28.1701H25.019Z" fill="black"/>
<path d="M40.4119 28.1701V16.76H43.5448V28.1701H40.4119ZM41.9857 15.2892C41.5199 15.2892 41.1203 15.1332 40.7869 14.8212C40.4584 14.5043 40.2942 14.1254 40.2942 13.6847C40.2942 13.2489 40.4584 12.875 40.7869 12.563C41.1203 12.2461 41.5199 12.0876 41.9857 12.0876C42.4515 12.0876 42.8486 12.2461 43.1771 12.563C43.5105 12.875 43.6772 13.2489 43.6772 13.6847C43.6772 14.1254 43.5105 14.5043 43.1771 14.8212C42.8486 15.1332 42.4515 15.2892 41.9857 15.2892Z" fill="black"/>
<path d="M52.0631 16.76V19.1371H45.2603V16.76H52.0631ZM46.8047 14.0264H49.9377V24.6639C49.9377 24.956 49.9818 25.1839 50.0701 25.3473C50.1583 25.5057 50.2809 25.6172 50.4378 25.6816C50.5996 25.7459 50.7859 25.7781 50.9967 25.7781C51.1438 25.7781 51.2909 25.7657 51.438 25.741C51.5851 25.7113 51.6978 25.689 51.7763 25.6741L52.269 28.0289C52.1121 28.0785 51.8915 28.1354 51.6071 28.1998C51.3228 28.2691 50.9771 28.3112 50.5702 28.3261C49.8151 28.3558 49.1532 28.2543 48.5845 28.0215C48.0206 27.7887 47.5818 27.4272 47.268 26.937C46.9542 26.4467 46.7998 25.8276 46.8047 25.0799V14.0264Z" fill="black"/>
<path d="M57.3252 28.3855C56.6045 28.3855 55.9622 28.2592 55.3983 28.0066C54.8345 27.7491 54.3883 27.3703 54.0598 26.8701C53.7362 26.365 53.5744 25.736 53.5744 24.9833C53.5744 24.3494 53.6897 23.817 53.9201 23.3862C54.1505 22.9553 54.4643 22.6087 54.8615 22.3462C55.2586 22.0837 55.7097 21.8856 56.2147 21.7519C56.7246 21.6182 57.259 21.5241 57.8179 21.4697C58.4749 21.4003 59.0045 21.3359 59.4065 21.2765C59.8085 21.2121 60.1003 21.118 60.2817 20.9942C60.4631 20.8704 60.5538 20.6872 60.5538 20.4445V20.4C60.5538 19.9295 60.4067 19.5655 60.1125 19.308C59.8232 19.0505 59.4114 18.9217 58.877 18.9217C58.3131 18.9217 57.8645 19.048 57.5311 19.3006C57.1977 19.5482 56.9771 19.8602 56.8692 20.2365L53.9716 19.9988C54.1187 19.3055 54.4079 18.7063 54.8394 18.2012C55.2709 17.6911 55.8273 17.2998 56.5089 17.0275C57.1953 16.7501 57.9895 16.6115 58.8917 16.6115C59.5193 16.6115 60.1199 16.6858 60.6935 16.8343C61.2721 16.9829 61.7844 17.2132 62.2306 17.5252C62.6817 17.8372 63.0371 18.2383 63.297 18.7286C63.5568 19.2139 63.6868 19.7958 63.6868 20.4742V28.1701H60.7156V26.5878H60.6273C60.4459 26.9444 60.2032 27.2589 59.8992 27.5312C59.5953 27.7986 59.23 28.0091 58.8034 28.1626C58.3769 28.3112 57.8841 28.3855 57.3252 28.3855ZM58.2224 26.2015C58.6833 26.2015 59.0903 26.1099 59.4433 25.9267C59.7963 25.7385 60.0733 25.4859 60.2743 25.169C60.4753 24.8521 60.5758 24.493 60.5758 24.0919V22.881C60.4778 22.9454 60.343 23.0049 60.1714 23.0593C60.0047 23.1089 59.8159 23.1559 59.6051 23.2005C59.3942 23.2401 59.1834 23.2772 58.9726 23.3119C58.7618 23.3416 58.5705 23.3688 58.3989 23.3936C58.0312 23.4481 57.7101 23.5347 57.4355 23.6536C57.1609 23.7725 56.9477 23.9334 56.7957 24.1364C56.6437 24.3345 56.5677 24.5822 56.5677 24.8793C56.5677 25.3101 56.7221 25.6395 57.031 25.8673C57.3448 26.0901 57.7419 26.2015 58.2224 26.2015Z" fill="black"/>
<path d="M71.2214 28.3929C70.0643 28.3929 69.069 28.1453 68.2355 27.6501C67.4069 27.1499 66.7695 26.4566 66.3233 25.5701C65.8821 24.6837 65.6614 23.6635 65.6614 22.5096C65.6614 21.3409 65.8845 20.3158 66.3307 19.4343C66.7818 18.5478 67.4216 17.857 68.2502 17.3617C69.0788 16.8616 70.0643 16.6115 71.2067 16.6115C72.1922 16.6115 73.0551 16.7922 73.7954 17.1538C74.5358 17.5153 75.1217 18.0229 75.5531 18.6766C75.9846 19.3303 76.2224 20.0979 76.2665 20.9794H73.31C73.2267 20.4099 73.0061 19.9518 72.6481 19.6051C72.2951 19.2535 71.8318 19.0777 71.2581 19.0777C70.7728 19.0777 70.3487 19.2114 69.9858 19.4788C69.6279 19.7413 69.3485 20.1251 69.1474 20.6302C68.9464 21.1354 68.8459 21.747 68.8459 22.4651C68.8459 23.193 68.944 23.8121 69.1401 24.3222C69.3411 24.8322 69.623 25.221 69.9858 25.4884C70.3487 25.7558 70.7728 25.8896 71.2581 25.8896C71.6161 25.8896 71.9372 25.8153 72.2216 25.6667C72.5109 25.5181 72.7486 25.3027 72.935 25.0204C73.1262 24.7332 73.2512 24.389 73.31 23.9879H76.2665C76.2175 24.8595 75.9821 25.6271 75.5605 26.2907C75.1437 26.9493 74.5676 27.4644 73.8322 27.8358C73.0968 28.2072 72.2265 28.3929 71.2214 28.3929Z" fill="black"/>
<path d="M81.4054 21.5737V28.1701H78.2724V12.9567H81.3172V18.7731H81.4495C81.7045 18.0996 82.1163 17.5722 82.6851 17.1909C83.2538 16.8046 83.9672 16.6115 84.8252 16.6115C85.6097 16.6115 86.2937 16.7848 86.8771 17.1315C87.4655 17.4732 87.9214 17.9659 88.245 18.6097C88.5735 19.2486 88.7353 20.0137 88.7304 20.9051V28.1701H85.5974V21.4697C85.6023 20.7664 85.4258 20.2192 85.0679 19.828C84.7149 19.4367 84.2197 19.2411 83.5823 19.2411C83.1558 19.2411 82.7782 19.3327 82.4497 19.516C82.1262 19.6992 81.8712 19.9666 81.6849 20.3183C81.5035 20.6649 81.4103 21.0834 81.4054 21.5737Z" fill="black"/>
<path d="M91.196 28.1701V16.76H94.329V28.1701H91.196ZM92.7698 15.2892C92.3041 15.2892 91.9045 15.1332 91.5711 14.8212C91.2426 14.5043 91.0783 14.1254 91.0783 13.6847C91.0783 13.2489 91.2426 12.875 91.5711 12.563C91.9045 12.2461 92.3041 12.0876 92.7698 12.0876C93.2356 12.0876 93.6328 12.2461 93.9613 12.563C94.2947 12.875 94.4614 13.2489 94.4614 13.6847C94.4614 14.1254 94.2947 14.5043 93.9613 14.8212C93.6328 15.1332 93.2356 15.2892 92.7698 15.2892Z" fill="black"/>
<path d="M101.691 28.1701V12.9567H107.633C108.776 12.9567 109.749 13.1771 110.553 13.6178C111.357 14.0536 111.97 14.6603 112.391 15.4378C112.818 16.2103 113.031 17.1018 113.031 18.112C113.031 19.1223 112.816 20.0137 112.384 20.7862C111.953 21.5588 111.328 22.1605 110.509 22.5913C109.695 23.0222 108.709 23.2376 107.552 23.2376H103.765V20.66H107.037C107.65 20.66 108.155 20.5535 108.552 20.3405C108.954 20.1226 109.254 19.823 109.45 19.4417C109.651 19.0554 109.751 18.6122 109.751 18.112C109.751 17.6069 109.651 17.1661 109.45 16.7898C109.254 16.4084 108.954 16.1138 108.552 15.9058C108.15 15.6928 107.64 15.5864 107.023 15.5864H104.875V28.1701H101.691Z" fill="black"/>
<path d="M117.959 28.3855C117.238 28.3855 116.596 28.2592 116.032 28.0066C115.468 27.7491 115.022 27.3703 114.693 26.8701C114.37 26.365 114.208 25.736 114.208 24.9833C114.208 24.3494 114.323 23.817 114.554 23.3862C114.784 22.9553 115.098 22.6087 115.495 22.3462C115.892 22.0837 116.343 21.8856 116.848 21.7519C117.358 21.6182 117.893 21.5241 118.451 21.4697C119.108 21.4003 119.638 21.3359 120.04 21.2765C120.442 21.2121 120.734 21.118 120.915 20.9942C121.097 20.8704 121.187 20.6872 121.187 20.4445V20.4C121.187 19.9295 121.04 19.5655 120.746 19.308C120.457 19.0505 120.045 18.9217 119.511 18.9217C118.947 18.9217 118.498 19.048 118.165 19.3006C117.831 19.5482 117.611 19.8602 117.503 20.2365L114.605 19.9988C114.752 19.3055 115.041 18.7063 115.473 18.2012C115.904 17.6911 116.461 17.2998 117.142 17.0275C117.829 16.7501 118.623 16.6115 119.525 16.6115C120.153 16.6115 120.753 16.6858 121.327 16.8343C121.906 16.9829 122.418 17.2132 122.864 17.5252C123.315 17.8372 123.671 18.2383 123.931 18.7286C124.19 19.2139 124.32 19.7958 124.32 20.4742V28.1701H121.349V26.5878H121.261C121.079 26.9444 120.837 27.2589 120.533 27.5312C120.229 27.7986 119.864 28.0091 119.437 28.1626C119.01 28.3112 118.518 28.3855 117.959 28.3855ZM118.856 26.2015C119.317 26.2015 119.724 26.1099 120.077 25.9267C120.43 25.7385 120.707 25.4859 120.908 25.169C121.109 24.8521 121.209 24.493 121.209 24.0919V22.881C121.111 22.9454 120.977 23.0049 120.805 23.0593C120.638 23.1089 120.449 23.1559 120.239 23.2005C120.028 23.2401 119.817 23.2772 119.606 23.3119C119.395 23.3416 119.204 23.3688 119.032 23.3936C118.665 23.4481 118.344 23.5347 118.069 23.6536C117.795 23.7725 117.581 23.9334 117.429 24.1364C117.277 24.3345 117.201 24.5822 117.201 24.8793C117.201 25.3101 117.356 25.6395 117.665 25.8673C117.978 26.0901 118.376 26.2015 118.856 26.2015Z" fill="black"/>
<path d="M128.281 32.4488C127.884 32.4488 127.511 32.4166 127.163 32.3523C126.82 32.2928 126.535 32.2161 126.31 32.122L127.016 29.7597C127.383 29.8736 127.714 29.9356 128.009 29.9455C128.308 29.9554 128.565 29.886 128.781 29.7375C129.001 29.5889 129.18 29.3363 129.318 28.9798L129.502 28.4969L125.449 16.76H128.744L131.083 25.1393H131.2L133.561 16.76H136.878L132.487 29.4032C132.277 30.0173 131.99 30.5521 131.627 31.0077C131.269 31.4683 130.816 31.8224 130.266 32.07C129.717 32.3225 129.055 32.4488 128.281 32.4488Z" fill="black"/>
<path d="M138.481 28.1701V16.76H141.467V18.7731H141.6C141.835 18.1046 142.227 17.5772 142.776 17.1909C143.325 16.8046 143.982 16.6115 144.747 16.6115C145.522 16.6115 146.181 16.8071 146.726 17.1983C147.27 17.5846 147.633 18.1095 147.814 18.7731H147.932C148.162 18.1194 148.579 17.597 149.182 17.2058C149.79 16.8096 150.508 16.6115 151.337 16.6115C152.391 16.6115 153.247 16.9507 153.904 17.6292C154.565 18.3027 154.896 19.2585 154.896 20.4965V28.1701H151.771V21.1205C151.771 20.4866 151.604 20.0112 151.271 19.6943C150.937 19.3773 150.52 19.2188 150.02 19.2188C149.452 19.2188 149.008 19.4021 148.689 19.7685C148.371 20.1301 148.211 20.608 148.211 21.2022V28.1701H145.174V21.0537C145.174 20.4941 145.014 20.0484 144.696 19.7165C144.382 19.3847 143.968 19.2188 143.453 19.2188C143.105 19.2188 142.791 19.308 142.511 19.4863C142.237 19.6596 142.019 19.9047 141.857 20.2217C141.695 20.5337 141.614 20.9001 141.614 21.3211V28.1701H138.481Z" fill="black"/>
<path d="M162.519 28.3929C161.357 28.3929 160.357 28.1552 159.519 27.6798C158.685 27.1994 158.043 26.521 157.592 25.6444C157.141 24.7629 156.915 23.7205 156.915 22.5171C156.915 21.3434 157.141 20.3133 157.592 19.4268C158.043 18.5404 158.678 17.8495 159.497 17.3543C160.32 16.8591 161.286 16.6115 162.394 16.6115C163.139 16.6115 163.833 16.7328 164.475 16.9755C165.123 17.2132 165.687 17.5722 166.167 18.0526C166.652 18.533 167.03 19.1371 167.3 19.8651C167.569 20.5882 167.704 21.435 167.704 22.4056V23.2748H158.165V21.3137H164.755C164.755 20.858 164.657 20.4544 164.461 20.1028C164.265 19.7512 163.993 19.4764 163.644 19.2783C163.301 19.0752 162.902 18.9737 162.446 18.9737C161.97 18.9737 161.548 19.0851 161.181 19.308C160.818 19.5259 160.534 19.8205 160.328 20.192C160.122 20.5584 160.016 20.967 160.011 21.4177V23.2822C160.011 23.8467 160.114 24.3345 160.32 24.7456C160.531 25.1566 160.828 25.4736 161.21 25.6964C161.593 25.9193 162.046 26.0307 162.571 26.0307C162.919 26.0307 163.237 25.9812 163.527 25.8821C163.816 25.7831 164.064 25.6345 164.27 25.4364C164.475 25.2383 164.632 24.9957 164.74 24.7084L167.638 24.9016C167.491 25.6048 167.189 26.2189 166.733 26.7438C166.282 27.2638 165.699 27.6699 164.983 27.9621C164.272 28.2493 163.451 28.3929 162.519 28.3929Z" fill="black"/>
<path d="M172.882 21.5737V28.1701H169.749V16.76H172.734V18.7731H172.867C173.117 18.1095 173.536 17.5846 174.124 17.1983C174.713 16.8071 175.426 16.6115 176.265 16.6115C177.049 16.6115 177.733 16.7848 178.316 17.1315C178.9 17.4781 179.353 17.9734 179.677 18.6171C180.001 19.256 180.162 20.0186 180.162 20.9051V28.1701H177.029V21.4697C177.034 20.7714 176.858 20.2266 176.5 19.8354C176.142 19.4392 175.649 19.2411 175.022 19.2411C174.6 19.2411 174.227 19.3327 173.904 19.516C173.585 19.6992 173.335 19.9666 173.154 20.3183C172.977 20.6649 172.886 21.0834 172.882 21.5737Z" fill="black"/>
<path d="M188.64 16.76V19.1371H181.837V16.76H188.64ZM183.382 14.0264H186.515V24.6639C186.515 24.956 186.559 25.1839 186.647 25.3473C186.735 25.5057 186.858 25.6172 187.015 25.6816C187.177 25.7459 187.363 25.7781 187.574 25.7781C187.721 25.7781 187.868 25.7657 188.015 25.741C188.162 25.7113 188.275 25.689 188.353 25.6741L188.846 28.0289C188.689 28.0785 188.469 28.1354 188.184 28.1998C187.9 28.2691 187.554 28.3112 187.147 28.3261C186.392 28.3558 185.73 28.2543 185.162 28.0215C184.598 27.7887 184.159 27.4272 183.845 26.937C183.531 26.4467 183.377 25.8276 183.382 25.0799V14.0264Z" fill="black"/>
<path d="M203.704 17.332C203.645 16.7328 203.393 16.2673 202.946 15.9355C202.5 15.6037 201.895 15.4378 201.13 15.4378C200.61 15.4378 200.171 15.5121 199.813 15.6606C199.456 15.8043 199.181 16.0048 198.99 16.2623C198.803 16.5199 198.71 16.812 198.71 17.1389C198.701 17.4113 198.757 17.649 198.879 17.852C199.007 18.0551 199.181 18.2309 199.402 18.3794C199.622 18.5231 199.877 18.6493 200.167 18.7583C200.456 18.8623 200.765 18.9514 201.093 19.0257L202.446 19.3526C203.103 19.5011 203.706 19.6992 204.256 19.9468C204.805 20.1944 205.28 20.499 205.682 20.8605C206.084 21.222 206.396 21.6479 206.616 22.1382C206.842 22.6285 206.957 23.1906 206.962 23.8245C206.957 24.7555 206.722 25.5627 206.256 26.2461C205.795 26.9246 205.128 27.452 204.256 27.8284C203.388 28.1998 202.341 28.3855 201.115 28.3855C199.899 28.3855 198.84 28.1973 197.938 27.8209C197.041 27.4446 196.34 26.8874 195.835 26.1495C195.335 25.4067 195.072 24.4881 195.048 23.3936H198.129C198.164 23.9037 198.308 24.3296 198.563 24.6713C198.823 25.008 199.169 25.2631 199.6 25.4364C200.037 25.6048 200.529 25.689 201.078 25.689C201.618 25.689 202.086 25.6097 202.483 25.4513C202.885 25.2928 203.197 25.0724 203.417 24.7901C203.638 24.5079 203.748 24.1835 203.748 23.817C203.748 23.4753 203.648 23.1881 203.447 22.9553C203.25 22.7226 202.961 22.5245 202.579 22.3611C202.201 22.1976 201.738 22.0491 201.189 21.9154L199.549 21.4994C198.279 21.1874 197.276 20.6996 196.541 20.036C195.805 19.3724 195.44 18.4785 195.445 17.3543C195.44 16.4332 195.683 15.6285 196.173 14.9401C196.668 14.2517 197.347 13.7144 198.21 13.3281C199.073 12.9419 200.054 12.7487 201.152 12.7487C202.27 12.7487 203.246 12.9419 204.079 13.3281C204.917 13.7144 205.57 14.2517 206.035 14.9401C206.501 15.6285 206.741 16.4258 206.756 17.332H203.704Z" fill="black"/>
<path d="M214.193 28.3929C213.031 28.3929 212.031 28.1552 211.193 27.6798C210.359 27.1994 209.717 26.521 209.266 25.6444C208.815 24.7629 208.589 23.7205 208.589 22.5171C208.589 21.3434 208.815 20.3133 209.266 19.4268C209.717 18.5404 210.352 17.8495 211.171 17.3543C211.994 16.8591 212.96 16.6115 214.068 16.6115C214.813 16.6115 215.507 16.7328 216.15 16.9755C216.797 17.2132 217.361 17.5722 217.841 18.0526C218.326 18.533 218.704 19.1371 218.974 19.8651C219.243 20.5882 219.378 21.435 219.378 22.4056V23.2748H209.839V21.3137H216.429C216.429 20.858 216.331 20.4544 216.135 20.1028C215.939 19.7512 215.667 19.4764 215.318 19.2783C214.975 19.0752 214.576 18.9737 214.12 18.9737C213.644 18.9737 213.222 19.0851 212.855 19.308C212.492 19.5259 212.208 19.8205 212.002 20.192C211.796 20.5584 211.69 20.967 211.685 21.4177V23.2822C211.685 23.8467 211.788 24.3345 211.994 24.7456C212.205 25.1566 212.502 25.4736 212.884 25.6964C213.267 25.9193 213.72 26.0307 214.245 26.0307C214.593 26.0307 214.912 25.9812 215.201 25.8821C215.49 25.7831 215.738 25.6345 215.944 25.4364C216.15 25.2383 216.306 24.9957 216.414 24.7084L219.312 24.9016C219.165 25.6048 218.863 26.2189 218.407 26.7438C217.956 27.2638 217.373 27.6699 216.657 27.9621C215.946 28.2493 215.125 28.3929 214.193 28.3929Z" fill="black"/>
<path d="M221.423 28.1701V16.76H224.46V18.7509H224.578C224.784 18.0427 225.129 17.5078 225.615 17.1463C226.1 16.7799 226.659 16.5966 227.291 16.5966C227.448 16.5966 227.618 16.6065 227.799 16.6263C227.98 16.6461 228.14 16.6734 228.277 16.708V19.516C228.13 19.4714 227.926 19.4318 227.667 19.3971C227.407 19.3625 227.169 19.3451 226.953 19.3451C226.492 19.3451 226.08 19.4467 225.718 19.6497C225.36 19.8478 225.075 20.1251 224.865 20.4817C224.659 20.8382 224.556 21.2493 224.556 21.7148V28.1701H221.423Z" fill="black"/>
<path d="M240.772 16.76L236.823 28.1701H233.293L229.343 16.76H232.653L234.999 24.9239H235.117L237.455 16.76H240.772Z" fill="black"/>
<path d="M242.375 28.1701V16.76H245.508V28.1701H242.375ZM243.949 15.2892C243.483 15.2892 243.084 15.1332 242.75 14.8212C242.422 14.5043 242.258 14.1254 242.258 13.6847C242.258 13.2489 242.422 12.875 242.75 12.563C243.084 12.2461 243.483 12.0876 243.949 12.0876C244.415 12.0876 244.812 12.2461 245.141 12.563C245.474 12.875 245.641 13.2489 245.641 13.6847C245.641 14.1254 245.474 14.5043 245.141 14.8212C244.812 15.1332 244.415 15.2892 243.949 15.2892Z" fill="black"/>
<path d="M253.122 28.3929C251.965 28.3929 250.97 28.1453 250.136 27.6501C249.308 27.1499 248.67 26.4566 248.224 25.5701C247.783 24.6837 247.562 23.6635 247.562 22.5096C247.562 21.3409 247.785 20.3158 248.231 19.4343C248.682 18.5478 249.322 17.857 250.151 17.3617C250.979 16.8616 251.965 16.6115 253.107 16.6115C254.093 16.6115 254.956 16.7922 255.696 17.1538C256.436 17.5153 257.022 18.0229 257.454 18.6766C257.885 19.3303 258.123 20.0979 258.167 20.9794H255.211C255.127 20.4099 254.907 19.9518 254.549 19.6051C254.196 19.2535 253.732 19.0777 253.159 19.0777C252.673 19.0777 252.249 19.2114 251.886 19.4788C251.529 19.7413 251.249 20.1251 251.048 20.6302C250.847 21.1354 250.747 21.747 250.747 22.4651C250.747 23.193 250.845 23.8121 251.041 24.3222C251.242 24.8322 251.524 25.221 251.886 25.4884C252.249 25.7558 252.673 25.8896 253.159 25.8896C253.517 25.8896 253.838 25.8153 254.122 25.6667C254.412 25.5181 254.649 25.3027 254.836 25.0204C255.027 24.7332 255.152 24.389 255.211 23.9879H258.167C258.118 24.8595 257.883 25.6271 257.461 26.2907C257.044 26.9493 256.468 27.4644 255.733 27.8358C254.997 28.2072 254.127 28.3929 253.122 28.3929Z" fill="black"/>
<path d="M265.321 28.3929C264.159 28.3929 263.159 28.1552 262.321 27.6798C261.487 27.1994 260.845 26.521 260.394 25.6444C259.943 24.7629 259.717 23.7205 259.717 22.5171C259.717 21.3434 259.943 20.3133 260.394 19.4268C260.845 18.5404 261.48 17.8495 262.299 17.3543C263.122 16.8591 264.088 16.6115 265.196 16.6115C265.941 16.6115 266.635 16.7328 267.277 16.9755C267.925 17.2132 268.488 17.5722 268.969 18.0526C269.454 18.533 269.832 19.1371 270.102 19.8651C270.371 20.5882 270.506 21.435 270.506 22.4056V23.2748H260.967V21.3137H267.557C267.557 20.858 267.459 20.4544 267.263 20.1028C267.067 19.7512 266.795 19.4764 266.446 19.2783C266.103 19.0752 265.704 18.9737 265.248 18.9737C264.772 18.9737 264.35 19.0851 263.983 19.308C263.62 19.5259 263.335 19.8205 263.13 20.192C262.924 20.5584 262.818 20.967 262.813 21.4177V23.2822C262.813 23.8467 262.916 24.3345 263.122 24.7456C263.333 25.1566 263.63 25.4736 264.012 25.6964C264.395 25.9193 264.848 26.0307 265.373 26.0307C265.721 26.0307 266.039 25.9812 266.329 25.8821C266.618 25.7831 266.866 25.6345 267.072 25.4364C267.277 25.2383 267.434 24.9957 267.542 24.7084L270.44 24.9016C270.293 25.6048 269.991 26.2189 269.535 26.7438C269.084 27.2638 268.501 27.6699 267.785 27.9621C267.074 28.2493 266.253 28.3929 265.321 28.3929Z" fill="black"/>
<path d="M281.95 20.0137L279.081 20.192C279.032 19.9444 278.927 19.7215 278.765 19.5234C278.603 19.3204 278.39 19.1594 278.125 19.0406C277.865 18.9168 277.554 18.8549 277.191 18.8549C276.706 18.8549 276.296 18.9589 275.963 19.1668C275.63 19.3699 275.463 19.6423 275.463 19.984C275.463 20.2563 275.571 20.4866 275.787 20.6748C276.002 20.863 276.372 21.014 276.897 21.1279L278.942 21.5439C280.04 21.7717 280.859 22.1382 281.398 22.6433C281.937 23.1485 282.207 23.8121 282.207 24.6342C282.207 25.3819 281.989 26.0381 281.552 26.6027C281.121 27.1672 280.528 27.608 279.773 27.9249C279.022 28.2369 278.157 28.3929 277.177 28.3929C275.681 28.3929 274.49 28.0785 273.602 27.4495C272.72 26.8156 272.202 25.9539 272.05 24.8644L275.132 24.701C275.225 25.1616 275.451 25.5132 275.809 25.7558C276.167 25.9935 276.625 26.1124 277.184 26.1124C277.733 26.1124 278.174 26.0059 278.508 25.793C278.846 25.5751 279.018 25.2953 279.022 24.9536C279.018 24.6663 278.897 24.4311 278.662 24.2479C278.427 24.0597 278.064 23.9161 277.574 23.817L275.617 23.4233C274.514 23.2005 273.693 22.8142 273.154 22.2645C272.619 21.7148 272.352 21.014 272.352 20.1623C272.352 19.4293 272.548 18.7979 272.94 18.268C273.338 17.7381 273.894 17.3296 274.61 17.0423C275.331 16.7551 276.174 16.6115 277.14 16.6115C278.567 16.6115 279.689 16.916 280.508 17.5252C281.332 18.1343 281.812 18.9638 281.95 20.0137Z" fill="black"/>
</svg>
